<?xml version="1.0" encoding="utf-8" standalone="no"?>
<!DOCTYPE svg PUBLIC "-//W3C//DTD SVG 1.1//EN"
  "http://www.w3.org/Graphics/SVG/1.1/DTD/svg11.dtd">
<svg xmlns:xlink="http://www.w3.org/1999/xlink" width="489.69012pt" height="195.352532pt" viewBox="0 0 489.69012 195.352532" xmlns="http://www.w3.org/2000/svg" version="1.1">
 <metadata>
  <rdf:RDF xmlns:dc="http://purl.org/dc/elements/1.1/" xmlns:cc="http://creativecommons.org/ns#" xmlns:rdf="http://www.w3.org/1999/02/22-rdf-syntax-ns#">
   <cc:Work>
    <dc:type rdf:resource="http://purl.org/dc/dcmitype/StillImage"/>
    <dc:date>2025-07-03T14:25:22.931603</dc:date>
    <dc:format>image/svg+xml</dc:format>
    <dc:creator>
     <cc:Agent>
      <dc:title>Matplotlib v3.9.2, https://matplotlib.org/</dc:title>
     </cc:Agent>
    </dc:creator>
   </cc:Work>
  </rdf:RDF>
 </metadata>
 <defs>
  <style type="text/css">*{stroke-linejoin: round; stroke-linecap: butt}</style>
 </defs>
 <g id="figure_1">
  <g id="patch_1">
   <path d="M 0 195.352532 
L 489.69012 195.352532 
L 489.69012 0 
L 0 0 
z
" style="fill: #ffffff"/>
  </g>
  <g id="axes_1">
   <g id="patch_2">
    <path d="M 46.079688 74.40154 
L 123.982295 74.40154 
L 123.982295 9.859453 
L 46.079688 9.859453 
z
" style="fill: #ffffff"/>
   </g>
   <g id="PolyCollection_1">
    <defs>
     <path id="m13b023be99" d="M 49.620715 -141.859886 
L 49.620715 -141.859886 
L 49.620715 -141.809334 
L 61.424141 -141.809334 
L 61.424141 -141.758874 
L 73.227566 -141.758874 
L 73.227566 -141.749174 
L 85.030992 -141.749174 
L 85.030992 -141.838313 
L 96.834417 -141.838313 
L 96.834417 -142.685885 
L 108.637842 -142.685885 
L 108.637842 -143.559666 
L 120.441268 -143.559666 
L 120.441268 -143.673826 
L 120.441268 -143.673826 
L 108.637842 -143.673826 
L 108.637842 -142.759786 
L 96.834417 -142.759786 
L 96.834417 -141.847707 
L 85.030992 -141.847707 
L 85.030992 -141.755566 
L 73.227566 -141.755566 
L 73.227566 -141.764037 
L 61.424141 -141.764037 
L 61.424141 -141.8124 
L 49.620715 -141.8124 
L 49.620715 -141.859886 
z
" style="stroke: #1f77b4; stroke-opacity: 0.3"/>
    </defs>
    <g clip-path="url(#pf504fa8d5b)">
     <use xlink:href="#m13b023be99" x="0" y="195.352532" style="fill: #1f77b4; fill-opacity: 0.3; stroke: #1f77b4; stroke-opacity: 0.3"/>
    </g>
   </g>
   <g id="PolyCollection_2">
    <defs>
     <path id="mc09fe52148" d="M 49.620715 -152.714566 
L 49.620715 -152.714566 
L 49.620715 -152.66213 
L 61.424141 -152.66213 
L 61.424141 -152.609814 
L 73.227566 -152.609814 
L 73.227566 -152.598645 
L 85.030992 -152.598645 
L 85.030992 -152.687671 
L 96.834417 -152.687671 
L 96.834417 -153.569972 
L 108.637842 -153.569972 
L 108.637842 -154.489344 
L 120.441268 -154.489344 
L 120.441268 -154.609863 
L 120.441268 -154.609863 
L 108.637842 -154.609863 
L 108.637842 -153.646518 
L 96.834417 -153.646518 
L 96.834417 -152.697252 
L 85.030992 -152.697252 
L 85.030992 -152.605294 
L 73.227566 -152.605294 
L 73.227566 -152.615169 
L 61.424141 -152.615169 
L 61.424141 -152.665311 
L 49.620715 -152.665311 
L 49.620715 -152.714566 
z
" style="stroke: #d62728; stroke-opacity: 0.3"/>
    </defs>
    <g clip-path="url(#pf504fa8d5b)">
     <use xlink:href="#mc09fe52148" x="0" y="195.352532" style="fill: #d62728; fill-opacity: 0.3; stroke: #d62728; stroke-opacity: 0.3"/>
    </g>
   </g>
   <g id="matplotlib.axis_1">
    <g id="xtick_1">
     <g id="line2d_1">
      <defs>
       <path id="mc9b5478139" d="M 0 0 
L 0 3.5 
" style="stroke: #000000"/>
      </defs>
      <g>
       <use xlink:href="#mc9b5478139" x="54.342085" y="74.40154" style="stroke: #000000"/>
      </g>
     </g>
     <g id="text_1">
      <!-- 13.30 -->
      <g transform="translate(44.322242 86.720446) scale(0.07 -0.07)">
       <defs>
        <path id="DejaVuSerif-31" d="M 909 0 
L 909 331 
L 1722 331 
L 1722 4213 
L 781 3603 
L 781 4013 
L 1919 4750 
L 2350 4750 
L 2350 331 
L 3163 331 
L 3163 0 
L 909 0 
z
" transform="scale(0.015625)"/>
        <path id="DejaVuSerif-33" d="M 622 4469 
Q 988 4606 1323 4678 
Q 1659 4750 1953 4750 
Q 2638 4750 3022 4454 
Q 3406 4159 3406 3634 
Q 3406 3213 3140 2930 
Q 2875 2647 2388 2547 
Q 2963 2466 3280 2130 
Q 3597 1794 3597 1259 
Q 3597 606 3158 257 
Q 2719 -91 1894 -91 
Q 1528 -91 1179 -12 
Q 831 66 488 225 
L 488 1131 
L 838 1131 
Q 869 681 1141 450 
Q 1413 219 1906 219 
Q 2384 219 2661 495 
Q 2938 772 2938 1253 
Q 2938 1803 2653 2086 
Q 2369 2369 1819 2369 
L 1522 2369 
L 1522 2688 
L 1678 2688 
Q 2225 2688 2498 2914 
Q 2772 3141 2772 3597 
Q 2772 4006 2547 4223 
Q 2322 4441 1900 4441 
Q 1478 4441 1245 4241 
Q 1013 4041 972 3647 
L 622 3647 
L 622 4469 
z
" transform="scale(0.015625)"/>
        <path id="DejaVuSerif-2e" d="M 603 325 
Q 603 500 722 622 
Q 841 744 1019 744 
Q 1191 744 1312 622 
Q 1434 500 1434 325 
Q 1434 153 1312 31 
Q 1191 -91 1019 -91 
Q 841 -91 722 29 
Q 603 150 603 325 
z
" transform="scale(0.015625)"/>
        <path id="DejaVuSerif-30" d="M 2034 219 
Q 2513 219 2750 744 
Q 2988 1269 2988 2328 
Q 2988 3391 2750 3916 
Q 2513 4441 2034 4441 
Q 1556 4441 1318 3916 
Q 1081 3391 1081 2328 
Q 1081 1269 1318 744 
Q 1556 219 2034 219 
z
M 2034 -91 
Q 1275 -91 848 546 
Q 422 1184 422 2328 
Q 422 3475 848 4112 
Q 1275 4750 2034 4750 
Q 2797 4750 3222 4112 
Q 3647 3475 3647 2328 
Q 3647 1184 3222 546 
Q 2797 -91 2034 -91 
z
" transform="scale(0.015625)"/>
       </defs>
       <use xlink:href="#DejaVuSerif-31"/>
       <use xlink:href="#DejaVuSerif-33" x="63.623047"/>
       <use xlink:href="#DejaVuSerif-2e" x="127.246094"/>
       <use xlink:href="#DejaVuSerif-33" x="159.033203"/>
       <use xlink:href="#DejaVuSerif-30" x="222.65625"/>
      </g>
     </g>
    </g>
    <g id="xtick_2">
     <g id="line2d_2">
      <g>
       <use xlink:href="#mc9b5478139" x="82.670306" y="74.40154" style="stroke: #000000"/>
      </g>
     </g>
     <g id="text_2">
      <!-- 13.35 -->
      <g transform="translate(72.650463 86.720446) scale(0.07 -0.07)">
       <defs>
        <path id="DejaVuSerif-35" d="M 3219 4666 
L 3219 4153 
L 1081 4153 
L 1081 2816 
Q 1244 2928 1461 2984 
Q 1678 3041 1947 3041 
Q 2703 3041 3140 2622 
Q 3578 2203 3578 1478 
Q 3578 738 3136 323 
Q 2694 -91 1894 -91 
Q 1572 -91 1234 -12 
Q 897 66 544 225 
L 544 1131 
L 897 1131 
Q 925 688 1179 453 
Q 1434 219 1894 219 
Q 2388 219 2653 544 
Q 2919 869 2919 1478 
Q 2919 2084 2655 2407 
Q 2391 2731 1894 2731 
Q 1613 2731 1398 2631 
Q 1184 2531 1019 2322 
L 750 2322 
L 750 4666 
L 3219 4666 
z
" transform="scale(0.015625)"/>
       </defs>
       <use xlink:href="#DejaVuSerif-31"/>
       <use xlink:href="#DejaVuSerif-33" x="63.623047"/>
       <use xlink:href="#DejaVuSerif-2e" x="127.246094"/>
       <use xlink:href="#DejaVuSerif-33" x="159.033203"/>
       <use xlink:href="#DejaVuSerif-35" x="222.65625"/>
      </g>
     </g>
    </g>
    <g id="xtick_3">
     <g id="line2d_3">
      <g>
       <use xlink:href="#mc9b5478139" x="110.998528" y="74.40154" style="stroke: #000000"/>
      </g>
     </g>
     <g id="text_3">
      <!-- 13.40 -->
      <g transform="translate(100.978684 86.720446) scale(0.07 -0.07)">
       <defs>
        <path id="DejaVuSerif-34" d="M 2234 1581 
L 2234 4063 
L 641 1581 
L 2234 1581 
z
M 3609 0 
L 1484 0 
L 1484 331 
L 2234 331 
L 2234 1247 
L 197 1247 
L 197 1588 
L 2241 4750 
L 2859 4750 
L 2859 1581 
L 3750 1581 
L 3750 1247 
L 2859 1247 
L 2859 331 
L 3609 331 
L 3609 0 
z
" transform="scale(0.015625)"/>
       </defs>
       <use xlink:href="#DejaVuSerif-31"/>
       <use xlink:href="#DejaVuSerif-33" x="63.623047"/>
       <use xlink:href="#DejaVuSerif-2e" x="127.246094"/>
       <use xlink:href="#DejaVuSerif-34" x="159.033203"/>
       <use xlink:href="#DejaVuSerif-30" x="222.65625"/>
      </g>
     </g>
    </g>
   </g>
   <g id="matplotlib.axis_2">
    <g id="ytick_1">
     <g id="line2d_4">
      <defs>
       <path id="mc085848803" d="M 0 0 
L -3.5 0 
" style="stroke: #000000"/>
      </defs>
      <g>
       <use xlink:href="#mc085848803" x="46.079688" y="74.40154" style="stroke: #000000"/>
      </g>
     </g>
     <g id="text_4">
      <!-- 0.042 -->
      <g transform="translate(19.04 77.060993) scale(0.07 -0.07)">
       <defs>
        <path id="DejaVuSerif-32" d="M 819 3553 
L 469 3553 
L 469 4384 
Q 803 4563 1142 4656 
Q 1481 4750 1806 4750 
Q 2534 4750 2956 4397 
Q 3378 4044 3378 3438 
Q 3378 2753 2422 1800 
Q 2347 1728 2309 1691 
L 1131 513 
L 3078 513 
L 3078 1088 
L 3444 1088 
L 3444 0 
L 434 0 
L 434 341 
L 1850 1753 
Q 2319 2222 2519 2614 
Q 2719 3006 2719 3438 
Q 2719 3909 2473 4175 
Q 2228 4441 1797 4441 
Q 1350 4441 1106 4219 
Q 863 3997 819 3553 
z
" transform="scale(0.015625)"/>
       </defs>
       <use xlink:href="#DejaVuSerif-30"/>
       <use xlink:href="#DejaVuSerif-2e" x="63.623047"/>
       <use xlink:href="#DejaVuSerif-30" x="95.410156"/>
       <use xlink:href="#DejaVuSerif-34" x="159.033203"/>
       <use xlink:href="#DejaVuSerif-32" x="222.65625"/>
      </g>
     </g>
    </g>
    <g id="ytick_2">
     <g id="line2d_5">
      <g>
       <use xlink:href="#mc085848803" x="46.079688" y="42.130496" style="stroke: #000000"/>
      </g>
     </g>
     <g id="text_5">
      <!-- 0.047 -->
      <g transform="translate(19.04 44.789949) scale(0.07 -0.07)">
       <defs>
        <path id="DejaVuSerif-37" d="M 3609 4347 
L 1784 0 
L 1319 0 
L 3059 4153 
L 903 4153 
L 903 3578 
L 538 3578 
L 538 4666 
L 3609 4666 
L 3609 4347 
z
" transform="scale(0.015625)"/>
       </defs>
       <use xlink:href="#DejaVuSerif-30"/>
       <use xlink:href="#DejaVuSerif-2e" x="63.623047"/>
       <use xlink:href="#DejaVuSerif-30" x="95.410156"/>
       <use xlink:href="#DejaVuSerif-34" x="159.033203"/>
       <use xlink:href="#DejaVuSerif-37" x="222.65625"/>
      </g>
     </g>
    </g>
    <g id="ytick_3">
     <g id="line2d_6">
      <g>
       <use xlink:href="#mc085848803" x="46.079688" y="9.859453" style="stroke: #000000"/>
      </g>
     </g>
     <g id="text_6">
      <!-- 0.052 -->
      <g transform="translate(19.04 12.518906) scale(0.07 -0.07)">
       <use xlink:href="#DejaVuSerif-30"/>
       <use xlink:href="#DejaVuSerif-2e" x="63.623047"/>
       <use xlink:href="#DejaVuSerif-30" x="95.410156"/>
       <use xlink:href="#DejaVuSerif-35" x="159.033203"/>
       <use xlink:href="#DejaVuSerif-32" x="222.65625"/>
      </g>
     </g>
    </g>
    <g id="text_7">
     <!-- $y_{\mathrm{DW}}$ (kg/m$^2$) -->
     <g transform="translate(13.43 63.095496) rotate(-90) scale(0.07 -0.07)">
      <defs>
       <path id="DejaVuSerif-Italic-79" d="M 3681 3294 
Q 3372 1506 2828 563 
Q 2031 -822 1391 -1238 
Q 1106 -1422 356 -1422 
Q 209 -1422 60 -1397 
Q -88 -1372 -238 -1325 
L -113 -691 
L 181 -691 
Q 175 -741 175 -788 
Q 175 -919 231 -994 
Q 309 -1100 513 -1100 
Q 1063 -1100 1541 -622 
L 756 2988 
L 378 2988 
L 444 3322 
L 1303 3322 
L 2041 25 
Q 2544 778 2666 1088 
Q 3059 2059 3138 2959 
L 2759 2959 
L 2825 3294 
L 3681 3294 
z
" transform="scale(0.015625)"/>
       <path id="DejaVuSerif-44" d="M 1581 331 
L 2163 331 
Q 3072 331 3558 850 
Q 4044 1369 4044 2338 
Q 4044 3306 3559 3818 
Q 3075 4331 2163 4331 
L 1581 4331 
L 1581 331 
z
M 353 0 
L 353 331 
L 947 331 
L 947 4331 
L 353 4331 
L 353 4666 
L 2209 4666 
Q 3416 4666 4089 4050 
Q 4763 3434 4763 2338 
Q 4763 1238 4088 619 
Q 3413 0 2209 0 
L 353 0 
z
" transform="scale(0.015625)"/>
       <path id="DejaVuSerif-57" d="M 4878 0 
L 4366 0 
L 3297 3794 
L 2228 0 
L 1716 0 
L 494 4331 
L 31 4331 
L 31 4666 
L 1734 4666 
L 1734 4331 
L 1153 4331 
L 2125 884 
L 3188 4666 
L 3694 4666 
L 4775 844 
L 5753 4331 
L 5216 4331 
L 5216 4666 
L 6559 4666 
L 6559 4331 
L 6100 4331 
L 4878 0 
z
" transform="scale(0.015625)"/>
       <path id="DejaVuSerif-20" transform="scale(0.015625)"/>
       <path id="DejaVuSerif-28" d="M 2041 -997 
Q 1281 -656 893 83 
Q 506 822 506 1931 
Q 506 3044 893 3783 
Q 1281 4522 2041 4863 
L 2041 4556 
Q 1559 4225 1350 3623 
Q 1141 3022 1141 1931 
Q 1141 844 1350 242 
Q 1559 -359 2041 -691 
L 2041 -997 
z
" transform="scale(0.015625)"/>
       <path id="DejaVuSerif-6b" d="M 1831 0 
L 219 0 
L 219 331 
L 738 331 
L 738 4531 
L 184 4531 
L 184 4863 
L 1313 4863 
L 1313 1697 
L 2713 2988 
L 2234 2988 
L 2234 3322 
L 3738 3322 
L 3738 2988 
L 3169 2988 
L 2181 2075 
L 3444 331 
L 3922 331 
L 3922 0 
L 2284 0 
L 2284 331 
L 2759 331 
L 1766 1697 
L 1313 1275 
L 1313 331 
L 1831 331 
L 1831 0 
z
" transform="scale(0.015625)"/>
       <path id="DejaVuSerif-67" d="M 3359 2988 
L 3359 72 
Q 3359 -644 2965 -1033 
Q 2572 -1422 1844 -1422 
Q 1516 -1422 1216 -1362 
Q 916 -1303 641 -1184 
L 641 -488 
L 941 -488 
Q 997 -813 1206 -963 
Q 1416 -1113 1806 -1113 
Q 2313 -1113 2548 -827 
Q 2784 -541 2784 72 
L 2784 519 
Q 2616 206 2355 57 
Q 2094 -91 1709 -91 
Q 1097 -91 708 395 
Q 319 881 319 1663 
Q 319 2444 706 2928 
Q 1094 3413 1709 3413 
Q 2094 3413 2355 3264 
Q 2616 3116 2784 2803 
L 2784 3322 
L 3909 3322 
L 3909 2988 
L 3359 2988 
z
M 2784 1825 
Q 2784 2422 2554 2737 
Q 2325 3053 1888 3053 
Q 1444 3053 1217 2703 
Q 991 2353 991 1663 
Q 991 975 1217 622 
Q 1444 269 1888 269 
Q 2325 269 2554 583 
Q 2784 897 2784 1497 
L 2784 1825 
z
" transform="scale(0.015625)"/>
       <path id="DejaVuSerif-2f" d="M 1656 4666 
L 2156 4666 
L 500 -594 
L 0 -594 
L 1656 4666 
z
" transform="scale(0.015625)"/>
       <path id="DejaVuSerif-6d" d="M 3316 2675 
Q 3481 3041 3739 3227 
Q 3997 3413 4341 3413 
Q 4863 3413 5119 3089 
Q 5375 2766 5375 2113 
L 5375 331 
L 5894 331 
L 5894 0 
L 4300 0 
L 4300 331 
L 4800 331 
L 4800 2047 
Q 4800 2556 4650 2772 
Q 4500 2988 4153 2988 
Q 3769 2988 3567 2697 
Q 3366 2406 3366 1850 
L 3366 331 
L 3866 331 
L 3866 0 
L 2291 0 
L 2291 331 
L 2791 331 
L 2791 2069 
Q 2791 2566 2641 2777 
Q 2491 2988 2144 2988 
Q 1759 2988 1557 2697 
Q 1356 2406 1356 1850 
L 1356 331 
L 1856 331 
L 1856 0 
L 263 0 
L 263 331 
L 781 331 
L 781 2994 
L 231 2994 
L 231 3322 
L 1356 3322 
L 1356 2731 
Q 1516 3063 1762 3238 
Q 2009 3413 2322 3413 
Q 2709 3413 2968 3220 
Q 3228 3028 3316 2675 
z
" transform="scale(0.015625)"/>
       <path id="DejaVuSerif-29" d="M 453 -997 
L 453 -691 
Q 934 -359 1145 242 
Q 1356 844 1356 1931 
Q 1356 3022 1145 3623 
Q 934 4225 453 4556 
L 453 4863 
Q 1216 4522 1603 3783 
Q 1991 3044 1991 1931 
Q 1991 822 1603 83 
Q 1216 -656 453 -997 
z
" transform="scale(0.015625)"/>
      </defs>
      <use xlink:href="#DejaVuSerif-Italic-79" transform="translate(0 0.7125)"/>
      <use xlink:href="#DejaVuSerif-44" transform="translate(56.494141 -14.859375) scale(0.7)"/>
      <use xlink:href="#DejaVuSerif-57" transform="translate(112.617187 -14.859375) scale(0.7)"/>
      <use xlink:href="#DejaVuSerif-20" transform="translate(187.160742 0.7125)"/>
      <use xlink:href="#DejaVuSerif-28" transform="translate(218.947852 0.7125)"/>
      <use xlink:href="#DejaVuSerif-6b" transform="translate(257.961523 0.7125)"/>
      <use xlink:href="#DejaVuSerif-67" transform="translate(318.557227 0.7125)"/>
      <use xlink:href="#DejaVuSerif-2f" transform="translate(382.570898 0.7125)"/>
      <use xlink:href="#DejaVuSerif-6d" transform="translate(416.262305 0.7125)"/>
      <use xlink:href="#DejaVuSerif-32" transform="translate(511.994883 37.046875) scale(0.7)"/>
      <use xlink:href="#DejaVuSerif-29" transform="translate(559.126328 0.7125)"/>
     </g>
    </g>
   </g>
   <g id="line2d_7">
    <path d="M 49.620715 53.492646 
L 49.620715 53.541665 
L 61.424141 53.541665 
L 61.424141 53.591076 
L 73.227566 53.591076 
L 73.227566 53.600162 
L 85.030992 53.600162 
L 85.030992 53.509522 
L 96.834417 53.509522 
L 96.834417 52.629697 
L 108.637842 52.629697 
L 108.637842 51.735786 
L 120.441268 51.735786 
" clip-path="url(#pf504fa8d5b)" style="fill: none; stroke: #1f77b4; stroke-opacity: 0.8; stroke-width: 2; stroke-linecap: square"/>
   </g>
   <g id="line2d_8">
    <path d="M 49.620715 42.637966 
L 49.620715 42.688812 
L 61.424141 42.688812 
L 61.424141 42.740041 
L 73.227566 42.740041 
L 73.227566 42.750563 
L 85.030992 42.750563 
L 85.030992 42.660071 
L 96.834417 42.660071 
L 96.834417 41.744287 
L 108.637842 41.744287 
L 108.637842 40.802929 
L 120.441268 40.802929 
" clip-path="url(#pf504fa8d5b)" style="fill: none; stroke: #d62728; stroke-opacity: 0.8; stroke-width: 2; stroke-linecap: square"/>
   </g>
   <g id="line2d_9">
    <path d="M 49.620715 42.637966 
L 49.620715 42.68849 
L 61.424141 42.68849 
L 61.424141 42.739833 
L 73.227566 42.739833 
L 73.227566 42.751054 
L 85.030992 42.751054 
L 85.030992 42.660472 
L 96.834417 42.660472 
L 96.834417 41.732234 
L 108.637842 41.732234 
L 108.637842 40.78117 
L 120.441268 40.78117 
" clip-path="url(#pf504fa8d5b)" style="fill: none; stroke: #b3b3e1; stroke-opacity: 0.8; stroke-width: 2; stroke-linecap: square"/>
   </g>
   <g id="LineCollection_1">
    <path d="M 120.441268 56.016027 
L 120.441268 25.546314 
" clip-path="url(#pf504fa8d5b)" style="fill: none; stroke: #b3b3e1; stroke-opacity: 0.8; stroke-width: 2"/>
   </g>
   <g id="line2d_10">
    <defs>
     <path id="m3585a36388" d="M 4 0 
L -4 -0 
" style="stroke: #b3b3e1; stroke-opacity: 0.8"/>
    </defs>
    <g clip-path="url(#pf504fa8d5b)">
     <use xlink:href="#m3585a36388" x="120.441268" y="56.016027" style="fill: #b3b3e1; fill-opacity: 0.8; stroke: #b3b3e1; stroke-opacity: 0.8"/>
    </g>
   </g>
   <g id="line2d_11">
    <g clip-path="url(#pf504fa8d5b)">
     <use xlink:href="#m3585a36388" x="120.441268" y="25.546314" style="fill: #b3b3e1; fill-opacity: 0.8; stroke: #b3b3e1; stroke-opacity: 0.8"/>
    </g>
   </g>
   <g id="line2d_12"/>
   <g id="line2d_13"/>
   <g id="line2d_14"/>
   <g id="line2d_15">
    <defs>
     <path id="ma7b6826a24" d="M 0 1.5 
C 0.397805 1.5 0.77937 1.341951 1.06066 1.06066 
C 1.341951 0.77937 1.5 0.397805 1.5 0 
C 1.5 -0.397805 1.341951 -0.77937 1.06066 -1.06066 
C 0.77937 -1.341951 0.397805 -1.5 0 -1.5 
C -0.397805 -1.5 -0.77937 -1.341951 -1.06066 -1.06066 
C -1.341951 -0.77937 -1.5 -0.397805 -1.5 0 
C -1.5 0.397805 -1.341951 0.77937 -1.06066 1.06066 
C -0.77937 1.341951 -0.397805 1.5 0 1.5 
z
" style="stroke: #b3b3e1; stroke-opacity: 0.8"/>
    </defs>
    <g clip-path="url(#pf504fa8d5b)">
     <use xlink:href="#ma7b6826a24" x="120.441268" y="40.78117" style="fill: #b3b3e1; fill-opacity: 0.8; stroke: #b3b3e1; stroke-opacity: 0.8"/>
    </g>
   </g>
   <g id="patch_3">
    <path d="M 46.079688 74.40154 
L 46.079688 9.859453 
" style="fill: none; stroke: #000000; stroke-width: 1.5; stroke-linejoin: miter; stroke-linecap: square"/>
   </g>
   <g id="patch_4">
    <path d="M 46.079688 74.40154 
L 123.982295 74.40154 
" style="fill: none; stroke: #000000; stroke-width: 1.5; stroke-linejoin: miter; stroke-linecap: square"/>
   </g>
   <g id="legend_1">
    <g id="patch_5">
     <path d="M 55.901695 46.283516 
L 114.160288 46.283516 
Q 115.560288 46.283516 115.560288 44.883516 
L 115.560288 14.759453 
Q 115.560288 13.359453 114.160288 13.359453 
L 55.901695 13.359453 
Q 54.501695 13.359453 54.501695 14.759453 
L 54.501695 44.883516 
Q 54.501695 46.283516 55.901695 46.283516 
z
" style="fill: #ffffff; opacity: 0.8; stroke: #cccccc; stroke-linejoin: miter"/>
    </g>
    <g id="line2d_16">
     <path d="M 57.301695 19.028359 
L 64.301695 19.028359 
L 71.301695 19.028359 
" style="fill: none; stroke: #1f77b4; stroke-opacity: 0.8; stroke-width: 2; stroke-linecap: square"/>
    </g>
    <g id="text_8">
     <!-- SMPC -->
     <g transform="translate(76.901695 21.478359) scale(0.07 -0.07)">
      <defs>
       <path id="DejaVuSerif-53" d="M 594 225 
L 594 1288 
L 953 1284 
Q 969 753 1261 498 
Q 1553 244 2150 244 
Q 2706 244 2998 464 
Q 3291 684 3291 1106 
Q 3291 1444 3114 1625 
Q 2938 1806 2369 1978 
L 1753 2163 
Q 1084 2366 811 2669 
Q 538 2972 538 3500 
Q 538 4094 959 4422 
Q 1381 4750 2144 4750 
Q 2469 4750 2856 4679 
Q 3244 4609 3681 4475 
L 3681 3481 
L 3328 3481 
Q 3275 3975 2998 4195 
Q 2722 4416 2156 4416 
Q 1663 4416 1405 4214 
Q 1147 4013 1147 3628 
Q 1147 3294 1340 3103 
Q 1534 2913 2163 2725 
L 2741 2553 
Q 3375 2363 3645 2067 
Q 3916 1772 3916 1275 
Q 3916 597 3481 253 
Q 3047 -91 2188 -91 
Q 1803 -91 1404 -12 
Q 1006 66 594 225 
z
" transform="scale(0.015625)"/>
       <path id="DejaVuSerif-4d" d="M 353 0 
L 353 331 
L 947 331 
L 947 4331 
L 319 4331 
L 319 4666 
L 1678 4666 
L 3316 1344 
L 4953 4666 
L 6228 4666 
L 6228 4331 
L 5606 4331 
L 5606 331 
L 6203 331 
L 6203 0 
L 4378 0 
L 4378 331 
L 4972 331 
L 4972 3938 
L 3372 684 
L 2931 684 
L 1331 3938 
L 1331 331 
L 1925 331 
L 1925 0 
L 353 0 
z
" transform="scale(0.015625)"/>
       <path id="DejaVuSerif-50" d="M 1581 2375 
L 2406 2375 
Q 2872 2375 3115 2626 
Q 3359 2878 3359 3353 
Q 3359 3831 3115 4081 
Q 2872 4331 2406 4331 
L 1581 4331 
L 1581 2375 
z
M 353 0 
L 353 331 
L 947 331 
L 947 4331 
L 353 4331 
L 353 4666 
L 2559 4666 
Q 3259 4666 3668 4311 
Q 4078 3956 4078 3353 
Q 4078 2753 3668 2397 
Q 3259 2041 2559 2041 
L 1581 2041 
L 1581 331 
L 2303 331 
L 2303 0 
L 353 0 
z
" transform="scale(0.015625)"/>
       <path id="DejaVuSerif-43" d="M 4513 1234 
Q 4306 581 3820 245 
Q 3334 -91 2591 -91 
Q 2134 -91 1743 65 
Q 1353 222 1050 525 
Q 700 875 529 1320 
Q 359 1766 359 2328 
Q 359 3416 987 4083 
Q 1616 4750 2644 4750 
Q 3025 4750 3456 4650 
Q 3888 4550 4384 4347 
L 4384 3272 
L 4031 3272 
Q 3916 3859 3567 4137 
Q 3219 4416 2591 4416 
Q 1844 4416 1459 3886 
Q 1075 3356 1075 2328 
Q 1075 1303 1459 773 
Q 1844 244 2591 244 
Q 3113 244 3450 492 
Q 3788 741 3938 1234 
L 4513 1234 
z
" transform="scale(0.015625)"/>
      </defs>
      <use xlink:href="#DejaVuSerif-53"/>
      <use xlink:href="#DejaVuSerif-4d" x="68.505859"/>
      <use xlink:href="#DejaVuSerif-50" x="170.898438"/>
      <use xlink:href="#DejaVuSerif-43" x="238.183594"/>
     </g>
    </g>
    <g id="line2d_17">
     <path d="M 57.301695 29.303047 
L 64.301695 29.303047 
L 71.301695 29.303047 
" style="fill: none; stroke: #d62728; stroke-opacity: 0.8; stroke-width: 2; stroke-linecap: square"/>
    </g>
    <g id="text_9">
     <!-- RL-SMPC -->
     <g transform="translate(76.901695 31.753047) scale(0.07 -0.07)">
      <defs>
       <path id="DejaVuSerif-52" d="M 3066 2316 
Q 3284 2256 3442 2114 
Q 3600 1972 3725 1716 
L 4403 331 
L 4972 331 
L 4972 0 
L 3872 0 
L 3144 1484 
Q 2934 1916 2759 2042 
Q 2584 2169 2278 2169 
L 1581 2169 
L 1581 331 
L 2241 331 
L 2241 0 
L 353 0 
L 353 331 
L 947 331 
L 947 4331 
L 353 4331 
L 353 4666 
L 2719 4666 
Q 3400 4666 3770 4341 
Q 4141 4016 4141 3419 
Q 4141 2938 3870 2661 
Q 3600 2384 3066 2316 
z
M 1581 2503 
L 2503 2503 
Q 2975 2503 3200 2726 
Q 3425 2950 3425 3419 
Q 3425 3888 3200 4109 
Q 2975 4331 2503 4331 
L 1581 4331 
L 1581 2503 
z
" transform="scale(0.015625)"/>
       <path id="DejaVuSerif-4c" d="M 353 0 
L 353 331 
L 947 331 
L 947 4331 
L 353 4331 
L 353 4666 
L 2175 4666 
L 2175 4331 
L 1581 4331 
L 1581 384 
L 3713 384 
L 3713 1166 
L 4097 1166 
L 4097 0 
L 353 0 
z
" transform="scale(0.015625)"/>
       <path id="DejaVuSerif-2d" d="M 281 1959 
L 1881 1959 
L 1881 1472 
L 281 1472 
L 281 1959 
z
" transform="scale(0.015625)"/>
      </defs>
      <use xlink:href="#DejaVuSerif-52"/>
      <use xlink:href="#DejaVuSerif-4c" x="75.292969"/>
      <use xlink:href="#DejaVuSerif-2d" x="141.699219"/>
      <use xlink:href="#DejaVuSerif-53" x="175.488281"/>
      <use xlink:href="#DejaVuSerif-4d" x="243.994141"/>
      <use xlink:href="#DejaVuSerif-50" x="346.386719"/>
      <use xlink:href="#DejaVuSerif-43" x="413.671875"/>
     </g>
    </g>
    <g id="line2d_18">
     <path d="M 57.301695 39.577734 
L 64.301695 39.577734 
L 71.301695 39.577734 
" style="fill: none; stroke: #b3b3e1; stroke-opacity: 0.8; stroke-width: 2; stroke-linecap: square"/>
    </g>
    <g id="text_10">
     <!-- RL-rollout -->
     <g transform="translate(76.901695 42.027734) scale(0.07 -0.07)">
      <defs>
       <path id="DejaVuSerif-72" d="M 3059 3328 
L 3059 2497 
L 2728 2497 
Q 2713 2744 2591 2866 
Q 2469 2988 2234 2988 
Q 1809 2988 1582 2694 
Q 1356 2400 1356 1850 
L 1356 331 
L 2022 331 
L 2022 0 
L 263 0 
L 263 331 
L 781 331 
L 781 2994 
L 231 2994 
L 231 3322 
L 1356 3322 
L 1356 2731 
Q 1525 3078 1790 3245 
Q 2056 3413 2438 3413 
Q 2578 3413 2733 3391 
Q 2888 3369 3059 3328 
z
" transform="scale(0.015625)"/>
       <path id="DejaVuSerif-6f" d="M 1925 219 
Q 2388 219 2623 584 
Q 2859 950 2859 1663 
Q 2859 2375 2623 2739 
Q 2388 3103 1925 3103 
Q 1463 3103 1227 2739 
Q 991 2375 991 1663 
Q 991 950 1228 584 
Q 1466 219 1925 219 
z
M 1925 -91 
Q 1200 -91 759 389 
Q 319 869 319 1663 
Q 319 2456 758 2934 
Q 1197 3413 1925 3413 
Q 2653 3413 3092 2934 
Q 3531 2456 3531 1663 
Q 3531 869 3092 389 
Q 2653 -91 1925 -91 
z
" transform="scale(0.015625)"/>
       <path id="DejaVuSerif-6c" d="M 1313 331 
L 1856 331 
L 1856 0 
L 184 0 
L 184 331 
L 738 331 
L 738 4531 
L 184 4531 
L 184 4863 
L 1313 4863 
L 1313 331 
z
" transform="scale(0.015625)"/>
       <path id="DejaVuSerif-75" d="M 2266 3322 
L 3341 3322 
L 3341 331 
L 3884 331 
L 3884 0 
L 2766 0 
L 2766 588 
Q 2606 256 2353 82 
Q 2100 -91 1766 -91 
Q 1213 -91 952 223 
Q 691 538 691 1209 
L 691 2988 
L 172 2988 
L 172 3322 
L 1269 3322 
L 1269 1388 
Q 1269 781 1417 556 
Q 1566 331 1947 331 
Q 2347 331 2556 625 
Q 2766 919 2766 1478 
L 2766 2988 
L 2266 2988 
L 2266 3322 
z
" transform="scale(0.015625)"/>
       <path id="DejaVuSerif-74" d="M 691 2988 
L 184 2988 
L 184 3322 
L 691 3322 
L 691 4353 
L 1269 4353 
L 1269 3322 
L 2350 3322 
L 2350 2988 
L 1269 2988 
L 1269 878 
Q 1269 456 1350 337 
Q 1431 219 1650 219 
Q 1875 219 1978 351 
Q 2081 484 2088 781 
L 2522 781 
Q 2497 328 2275 118 
Q 2053 -91 1600 -91 
Q 1103 -91 897 129 
Q 691 350 691 878 
L 691 2988 
z
" transform="scale(0.015625)"/>
      </defs>
      <use xlink:href="#DejaVuSerif-52"/>
      <use xlink:href="#DejaVuSerif-4c" x="75.292969"/>
      <use xlink:href="#DejaVuSerif-2d" x="141.699219"/>
      <use xlink:href="#DejaVuSerif-72" x="175.488281"/>
      <use xlink:href="#DejaVuSerif-6f" x="223.291016"/>
      <use xlink:href="#DejaVuSerif-6c" x="283.496094"/>
      <use xlink:href="#DejaVuSerif-6c" x="315.478516"/>
      <use xlink:href="#DejaVuSerif-6f" x="347.460938"/>
      <use xlink:href="#DejaVuSerif-75" x="407.666016"/>
      <use xlink:href="#DejaVuSerif-74" x="472.070312"/>
     </g>
    </g>
   </g>
  </g>
  <g id="axes_2">
   <g id="patch_6">
    <path d="M 46.079688 163.503626 
L 123.982295 163.503626 
L 123.982295 98.96154 
L 46.079688 98.96154 
z
" style="fill: #ffffff"/>
   </g>
   <g id="matplotlib.axis_3">
    <g id="xtick_4">
     <g id="line2d_19">
      <g>
       <use xlink:href="#mc9b5478139" x="54.342085" y="163.503626" style="stroke: #000000"/>
      </g>
     </g>
     <g id="text_11">
      <!-- 13.30 -->
      <g transform="translate(44.322242 175.822532) scale(0.07 -0.07)">
       <use xlink:href="#DejaVuSerif-31"/>
       <use xlink:href="#DejaVuSerif-33" x="63.623047"/>
       <use xlink:href="#DejaVuSerif-2e" x="127.246094"/>
       <use xlink:href="#DejaVuSerif-33" x="159.033203"/>
       <use xlink:href="#DejaVuSerif-30" x="222.65625"/>
      </g>
     </g>
    </g>
    <g id="xtick_5">
     <g id="line2d_20">
      <g>
       <use xlink:href="#mc9b5478139" x="82.670306" y="163.503626" style="stroke: #000000"/>
      </g>
     </g>
     <g id="text_12">
      <!-- 13.35 -->
      <g transform="translate(72.650463 175.822532) scale(0.07 -0.07)">
       <use xlink:href="#DejaVuSerif-31"/>
       <use xlink:href="#DejaVuSerif-33" x="63.623047"/>
       <use xlink:href="#DejaVuSerif-2e" x="127.246094"/>
       <use xlink:href="#DejaVuSerif-33" x="159.033203"/>
       <use xlink:href="#DejaVuSerif-35" x="222.65625"/>
      </g>
     </g>
    </g>
    <g id="xtick_6">
     <g id="line2d_21">
      <g>
       <use xlink:href="#mc9b5478139" x="110.998528" y="163.503626" style="stroke: #000000"/>
      </g>
     </g>
     <g id="text_13">
      <!-- 13.40 -->
      <g transform="translate(100.978684 175.822532) scale(0.07 -0.07)">
       <use xlink:href="#DejaVuSerif-31"/>
       <use xlink:href="#DejaVuSerif-33" x="63.623047"/>
       <use xlink:href="#DejaVuSerif-2e" x="127.246094"/>
       <use xlink:href="#DejaVuSerif-34" x="159.033203"/>
       <use xlink:href="#DejaVuSerif-30" x="222.65625"/>
      </g>
     </g>
    </g>
    <g id="text_14">
     <!-- Time (days) -->
     <g transform="translate(64.242085 186.59722) scale(0.07 -0.07)">
      <defs>
       <path id="DejaVuSerif-54" d="M 1222 0 
L 1222 331 
L 1819 331 
L 1819 4294 
L 447 4294 
L 447 3566 
L 63 3566 
L 63 4666 
L 4206 4666 
L 4206 3566 
L 3822 3566 
L 3822 4294 
L 2450 4294 
L 2450 331 
L 3047 331 
L 3047 0 
L 1222 0 
z
" transform="scale(0.015625)"/>
       <path id="DejaVuSerif-69" d="M 622 4353 
Q 622 4497 726 4603 
Q 831 4709 978 4709 
Q 1122 4709 1226 4603 
Q 1331 4497 1331 4353 
Q 1331 4206 1228 4103 
Q 1125 4000 978 4000 
Q 831 4000 726 4103 
Q 622 4206 622 4353 
z
M 1356 331 
L 1900 331 
L 1900 0 
L 231 0 
L 231 331 
L 781 331 
L 781 2988 
L 231 2988 
L 231 3322 
L 1356 3322 
L 1356 331 
z
" transform="scale(0.015625)"/>
       <path id="DejaVuSerif-65" d="M 3469 1600 
L 991 1600 
L 991 1575 
Q 991 903 1244 561 
Q 1497 219 1991 219 
Q 2369 219 2611 417 
Q 2853 616 2950 1006 
L 3413 1006 
Q 3275 459 2904 184 
Q 2534 -91 1931 -91 
Q 1203 -91 761 389 
Q 319 869 319 1663 
Q 319 2450 753 2931 
Q 1188 3413 1894 3413 
Q 2647 3413 3050 2948 
Q 3453 2484 3469 1600 
z
M 2791 1931 
Q 2772 2513 2545 2808 
Q 2319 3103 1894 3103 
Q 1497 3103 1269 2806 
Q 1041 2509 991 1931 
L 2791 1931 
z
" transform="scale(0.015625)"/>
       <path id="DejaVuSerif-64" d="M 3359 331 
L 3909 331 
L 3909 0 
L 2784 0 
L 2784 519 
Q 2616 206 2355 57 
Q 2094 -91 1709 -91 
Q 1097 -91 708 395 
Q 319 881 319 1663 
Q 319 2444 706 2928 
Q 1094 3413 1709 3413 
Q 2094 3413 2355 3264 
Q 2616 3116 2784 2803 
L 2784 4531 
L 2241 4531 
L 2241 4863 
L 3359 4863 
L 3359 331 
z
M 2784 1497 
L 2784 1825 
Q 2784 2422 2554 2737 
Q 2325 3053 1888 3053 
Q 1444 3053 1217 2703 
Q 991 2353 991 1663 
Q 991 975 1217 622 
Q 1444 269 1888 269 
Q 2325 269 2554 583 
Q 2784 897 2784 1497 
z
" transform="scale(0.015625)"/>
       <path id="DejaVuSerif-61" d="M 2547 1044 
L 2547 1747 
L 1806 1747 
Q 1378 1747 1168 1562 
Q 959 1378 959 997 
Q 959 650 1171 447 
Q 1384 244 1747 244 
Q 2106 244 2326 466 
Q 2547 688 2547 1044 
z
M 3122 2075 
L 3122 331 
L 3634 331 
L 3634 0 
L 2547 0 
L 2547 359 
Q 2356 128 2106 18 
Q 1856 -91 1522 -91 
Q 969 -91 644 203 
Q 319 497 319 997 
Q 319 1513 691 1797 
Q 1063 2081 1741 2081 
L 2547 2081 
L 2547 2309 
Q 2547 2688 2317 2895 
Q 2088 3103 1672 3103 
Q 1328 3103 1125 2947 
Q 922 2791 872 2484 
L 575 2484 
L 575 3156 
Q 875 3284 1158 3348 
Q 1441 3413 1709 3413 
Q 2400 3413 2761 3070 
Q 3122 2728 3122 2075 
z
" transform="scale(0.015625)"/>
       <path id="DejaVuSerif-79" d="M 1381 -609 
L 1600 -56 
L 359 2988 
L -19 2988 
L -19 3322 
L 1509 3322 
L 1509 2988 
L 978 2988 
L 1913 703 
L 2847 2988 
L 2350 2988 
L 2350 3322 
L 3597 3322 
L 3597 2988 
L 3225 2988 
L 1703 -750 
Q 1547 -1138 1356 -1280 
Q 1166 -1422 819 -1422 
Q 672 -1422 517 -1397 
Q 363 -1372 206 -1325 
L 206 -691 
L 500 -691 
Q 519 -903 608 -995 
Q 697 -1088 884 -1088 
Q 1056 -1088 1161 -992 
Q 1266 -897 1381 -609 
z
" transform="scale(0.015625)"/>
       <path id="DejaVuSerif-73" d="M 359 184 
L 359 959 
L 691 959 
Q 703 588 923 403 
Q 1144 219 1575 219 
Q 1963 219 2166 364 
Q 2369 509 2369 788 
Q 2369 1006 2220 1140 
Q 2072 1275 1594 1428 
L 1178 1569 
Q 750 1706 558 1912 
Q 366 2119 366 2438 
Q 366 2894 700 3153 
Q 1034 3413 1625 3413 
Q 1888 3413 2178 3344 
Q 2469 3275 2778 3144 
L 2778 2419 
L 2447 2419 
Q 2434 2741 2221 2922 
Q 2009 3103 1644 3103 
Q 1281 3103 1095 2975 
Q 909 2847 909 2591 
Q 909 2381 1050 2254 
Q 1191 2128 1613 1997 
L 2069 1856 
Q 2541 1709 2748 1489 
Q 2956 1269 2956 922 
Q 2956 450 2595 179 
Q 2234 -91 1600 -91 
Q 1278 -91 972 -22 
Q 666 47 359 184 
z
" transform="scale(0.015625)"/>
      </defs>
      <use xlink:href="#DejaVuSerif-54"/>
      <use xlink:href="#DejaVuSerif-69" x="66.699219"/>
      <use xlink:href="#DejaVuSerif-6d" x="98.681641"/>
      <use xlink:href="#DejaVuSerif-65" x="193.505859"/>
      <use xlink:href="#DejaVuSerif-20" x="252.685547"/>
      <use xlink:href="#DejaVuSerif-28" x="284.472656"/>
      <use xlink:href="#DejaVuSerif-64" x="323.486328"/>
      <use xlink:href="#DejaVuSerif-61" x="387.5"/>
      <use xlink:href="#DejaVuSerif-79" x="447.119141"/>
      <use xlink:href="#DejaVuSerif-73" x="503.613281"/>
      <use xlink:href="#DejaVuSerif-29" x="554.931641"/>
     </g>
    </g>
   </g>
   <g id="matplotlib.axis_4">
    <g id="ytick_4">
     <g id="line2d_22">
      <g>
       <use xlink:href="#mc085848803" x="46.079688" y="163.503626" style="stroke: #000000"/>
      </g>
     </g>
     <g id="text_15">
      <!-- 0 -->
      <g transform="translate(34.625938 166.163079) scale(0.07 -0.07)">
       <use xlink:href="#DejaVuSerif-30"/>
      </g>
     </g>
    </g>
    <g id="ytick_5">
     <g id="line2d_23">
      <g>
       <use xlink:href="#mc085848803" x="46.079688" y="131.232583" style="stroke: #000000"/>
      </g>
     </g>
     <g id="text_16">
      <!-- 35 -->
      <g transform="translate(30.172188 133.892036) scale(0.07 -0.07)">
       <use xlink:href="#DejaVuSerif-33"/>
       <use xlink:href="#DejaVuSerif-35" x="63.623047"/>
      </g>
     </g>
    </g>
    <g id="ytick_6">
     <g id="line2d_24">
      <g>
       <use xlink:href="#mc085848803" x="46.079688" y="98.96154" style="stroke: #000000"/>
      </g>
     </g>
     <g id="text_17">
      <!-- 70 -->
      <g transform="translate(30.172188 101.620993) scale(0.07 -0.07)">
       <use xlink:href="#DejaVuSerif-37"/>
       <use xlink:href="#DejaVuSerif-30" x="63.623047"/>
      </g>
     </g>
    </g>
    <g id="text_18">
     <!-- $d_{\mathrm{iGlob}}$ (W/m$^2$) -->
     <g transform="translate(24.716406 153.772583) rotate(-90) scale(0.07 -0.07)">
      <defs>
       <path id="DejaVuSerif-Italic-64" d="M 3841 4863 
L 2897 0 
L 2322 0 
L 2422 519 
Q 2191 206 1902 57 
Q 1613 -91 1228 -91 
Q 616 -91 322 394 
Q 125 716 125 1166 
Q 125 1397 178 1663 
Q 331 2444 812 2928 
Q 1294 3413 1909 3413 
Q 2294 3413 2525 3264 
Q 2756 3116 2866 2803 
L 3200 4531 
L 2656 4531 
L 2722 4863 
L 3841 4863 
z
M 2613 1497 
L 2675 1825 
Q 2722 2069 2722 2266 
Q 2722 2550 2622 2738 
Q 2456 3053 2019 3053 
Q 1575 3053 1279 2703 
Q 984 2353 850 1663 
Q 788 1347 788 1103 
Q 788 813 875 622 
Q 1031 269 1475 269 
Q 1913 269 2203 583 
Q 2494 897 2613 1497 
z
" transform="scale(0.015625)"/>
       <path id="DejaVuSerif-47" d="M 4097 3272 
Q 3988 3856 3641 4136 
Q 3294 4416 2675 4416 
Q 1869 4416 1472 3897 
Q 1075 3378 1075 2328 
Q 1075 1300 1484 772 
Q 1894 244 2688 244 
Q 3041 244 3362 331 
Q 3684 419 3975 594 
L 3975 1797 
L 3097 1797 
L 3097 2131 
L 4609 2131 
L 4609 391 
Q 4194 150 3714 29 
Q 3234 -91 2688 -91 
Q 1631 -91 995 570 
Q 359 1231 359 2328 
Q 359 3434 996 4092 
Q 1634 4750 2713 4750 
Q 3113 4750 3539 4658 
Q 3966 4566 4447 4378 
L 4447 3272 
L 4097 3272 
z
" transform="scale(0.015625)"/>
       <path id="DejaVuSerif-62" d="M 738 331 
L 738 4531 
L 184 4531 
L 184 4863 
L 1313 4863 
L 1313 2803 
Q 1481 3116 1742 3264 
Q 2003 3413 2388 3413 
Q 3000 3413 3387 2928 
Q 3775 2444 3775 1663 
Q 3775 881 3387 395 
Q 3000 -91 2388 -91 
Q 2003 -91 1742 57 
Q 1481 206 1313 519 
L 1313 0 
L 184 0 
L 184 331 
L 738 331 
z
M 1313 1497 
Q 1313 897 1542 583 
Q 1772 269 2209 269 
Q 2650 269 2876 622 
Q 3103 975 3103 1663 
Q 3103 2353 2876 2703 
Q 2650 3053 2209 3053 
Q 1772 3053 1542 2737 
Q 1313 2422 1313 1825 
L 1313 1497 
z
" transform="scale(0.015625)"/>
      </defs>
      <use xlink:href="#DejaVuSerif-Italic-64" transform="translate(0 0.7125)"/>
      <use xlink:href="#DejaVuSerif-69" transform="translate(64.013672 -14.859375) scale(0.7)"/>
      <use xlink:href="#DejaVuSerif-47" transform="translate(86.401367 -14.859375) scale(0.7)"/>
      <use xlink:href="#DejaVuSerif-6c" transform="translate(142.319336 -14.859375) scale(0.7)"/>
      <use xlink:href="#DejaVuSerif-6f" transform="translate(164.707031 -14.859375) scale(0.7)"/>
      <use xlink:href="#DejaVuSerif-62" transform="translate(206.850586 -14.859375) scale(0.7)"/>
      <use xlink:href="#DejaVuSerif-20" transform="translate(254.255469 0.7125)"/>
      <use xlink:href="#DejaVuSerif-28" transform="translate(286.042578 0.7125)"/>
      <use xlink:href="#DejaVuSerif-57" transform="translate(325.05625 0.7125)"/>
      <use xlink:href="#DejaVuSerif-2f" transform="translate(427.839453 0.7125)"/>
      <use xlink:href="#DejaVuSerif-6d" transform="translate(461.530859 0.7125)"/>
      <use xlink:href="#DejaVuSerif-32" transform="translate(557.263438 37.046875) scale(0.7)"/>
      <use xlink:href="#DejaVuSerif-29" transform="translate(604.394883 0.7125)"/>
     </g>
    </g>
   </g>
   <g id="line2d_25">
    <path d="M 49.620715 163.503626 
L 61.424141 163.503626 
L 73.227566 161.659566 
L 85.030992 157.049417 
L 96.834417 113.714016 
L 108.637842 112.791988 
L 120.441268 132.154612 
" clip-path="url(#p9e31c0ce26)" style="fill: none; stroke: #7f7f7f; stroke-width: 2; stroke-linecap: square"/>
   </g>
   <g id="patch_7">
    <path d="M 46.079688 163.503626 
L 46.079688 98.96154 
" style="fill: none; stroke: #000000; stroke-width: 1.5; stroke-linejoin: miter; stroke-linecap: square"/>
   </g>
   <g id="patch_8">
    <path d="M 46.079688 163.503626 
L 123.982295 163.503626 
" style="fill: none; stroke: #000000; stroke-width: 1.5; stroke-linejoin: miter; stroke-linecap: square"/>
   </g>
  </g>
  <g id="axes_3">
   <g id="patch_9">
    <path d="M 165.582296 74.40154 
L 243.484903 74.40154 
L 243.484903 9.859453 
L 165.582296 9.859453 
z
" style="fill: #ffffff"/>
   </g>
   <g id="PolyCollection_3">
    <defs>
     <path id="m63469b2bb9" d="M 169.123323 -137.091513 
L 169.123323 -137.091513 
L 169.123323 -137.093799 
L 180.926749 -137.093799 
L 180.926749 -137.090098 
L 192.730174 -137.090098 
L 192.730174 -137.09654 
L 204.5336 -137.09654 
L 204.5336 -139.04836 
L 216.337025 -139.04836 
L 216.337025 -137.156486 
L 228.14045 -137.156486 
L 228.14045 -137.156451 
L 239.943876 -137.156451 
L 239.943876 -137.438454 
L 239.943876 -137.438454 
L 228.14045 -137.438454 
L 228.14045 -137.372495 
L 216.337025 -137.372495 
L 216.337025 -139.118206 
L 204.5336 -139.118206 
L 204.5336 -137.121142 
L 192.730174 -137.121142 
L 192.730174 -137.108329 
L 180.926749 -137.108329 
L 180.926749 -137.11793 
L 169.123323 -137.11793 
L 169.123323 -137.091513 
z
" style="stroke: #1f77b4; stroke-opacity: 0.3"/>
    </defs>
    <g clip-path="url(#p3cdec1dea1)">
     <use xlink:href="#m63469b2bb9" x="0" y="195.352532" style="fill: #1f77b4; fill-opacity: 0.3; stroke: #1f77b4; stroke-opacity: 0.3"/>
    </g>
   </g>
   <g id="PolyCollection_4">
    <defs>
     <path id="mb45bf4e6f4" d="M 169.123323 -139.538247 
L 169.123323 -139.538247 
L 169.123323 -141.983585 
L 180.926749 -141.983585 
L 180.926749 -144.875829 
L 192.730174 -144.875829 
L 192.730174 -146.764397 
L 204.5336 -146.764397 
L 204.5336 -154.554308 
L 216.337025 -154.554308 
L 216.337025 -158.073529 
L 228.14045 -158.073529 
L 228.14045 -166.097701 
L 239.943876 -166.097701 
L 239.943876 -168.356685 
L 239.943876 -168.356685 
L 228.14045 -168.356685 
L 228.14045 -159.111985 
L 216.337025 -159.111985 
L 216.337025 -155.196531 
L 204.5336 -155.196531 
L 204.5336 -147.372055 
L 192.730174 -147.372055 
L 192.730174 -145.053176 
L 180.926749 -145.053176 
L 180.926749 -142.069353 
L 169.123323 -142.069353 
L 169.123323 -139.538247 
z
" style="stroke: #d62728; stroke-opacity: 0.3"/>
    </defs>
    <g clip-path="url(#p3cdec1dea1)">
     <use xlink:href="#mb45bf4e6f4" x="0" y="195.352532" style="fill: #d62728; fill-opacity: 0.3; stroke: #d62728; stroke-opacity: 0.3"/>
    </g>
   </g>
   <g id="matplotlib.axis_5">
    <g id="xtick_7">
     <g id="line2d_26">
      <g>
       <use xlink:href="#mc9b5478139" x="173.844693" y="74.40154" style="stroke: #000000"/>
      </g>
     </g>
     <g id="text_19">
      <!-- 13.30 -->
      <g transform="translate(163.82485 86.720446) scale(0.07 -0.07)">
       <use xlink:href="#DejaVuSerif-31"/>
       <use xlink:href="#DejaVuSerif-33" x="63.623047"/>
       <use xlink:href="#DejaVuSerif-2e" x="127.246094"/>
       <use xlink:href="#DejaVuSerif-33" x="159.033203"/>
       <use xlink:href="#DejaVuSerif-30" x="222.65625"/>
      </g>
     </g>
    </g>
    <g id="xtick_8">
     <g id="line2d_27">
      <g>
       <use xlink:href="#mc9b5478139" x="202.172914" y="74.40154" style="stroke: #000000"/>
      </g>
     </g>
     <g id="text_20">
      <!-- 13.35 -->
      <g transform="translate(192.153071 86.720446) scale(0.07 -0.07)">
       <use xlink:href="#DejaVuSerif-31"/>
       <use xlink:href="#DejaVuSerif-33" x="63.623047"/>
       <use xlink:href="#DejaVuSerif-2e" x="127.246094"/>
       <use xlink:href="#DejaVuSerif-33" x="159.033203"/>
       <use xlink:href="#DejaVuSerif-35" x="222.65625"/>
      </g>
     </g>
    </g>
    <g id="xtick_9">
     <g id="line2d_28">
      <g>
       <use xlink:href="#mc9b5478139" x="230.501136" y="74.40154" style="stroke: #000000"/>
      </g>
     </g>
     <g id="text_21">
      <!-- 13.40 -->
      <g transform="translate(220.481292 86.720446) scale(0.07 -0.07)">
       <use xlink:href="#DejaVuSerif-31"/>
       <use xlink:href="#DejaVuSerif-33" x="63.623047"/>
       <use xlink:href="#DejaVuSerif-2e" x="127.246094"/>
       <use xlink:href="#DejaVuSerif-34" x="159.033203"/>
       <use xlink:href="#DejaVuSerif-30" x="222.65625"/>
      </g>
     </g>
    </g>
   </g>
   <g id="matplotlib.axis_6">
    <g id="ytick_7">
     <g id="line2d_29">
      <g>
       <use xlink:href="#mc085848803" x="165.582296" y="74.40154" style="stroke: #000000"/>
      </g>
     </g>
     <g id="text_22">
      <!-- 400 -->
      <g transform="translate(145.221046 77.060993) scale(0.07 -0.07)">
       <use xlink:href="#DejaVuSerif-34"/>
       <use xlink:href="#DejaVuSerif-30" x="63.623047"/>
       <use xlink:href="#DejaVuSerif-30" x="127.246094"/>
      </g>
     </g>
    </g>
    <g id="ytick_8">
     <g id="line2d_30">
      <g>
       <use xlink:href="#mc085848803" x="165.582296" y="42.130496" style="stroke: #000000"/>
      </g>
     </g>
     <g id="text_23">
      <!-- 600 -->
      <g transform="translate(145.221046 44.789949) scale(0.07 -0.07)">
       <defs>
        <path id="DejaVuSerif-36" d="M 2094 219 
Q 2534 219 2771 542 
Q 3009 866 3009 1472 
Q 3009 2078 2771 2401 
Q 2534 2725 2094 2725 
Q 1647 2725 1412 2412 
Q 1178 2100 1178 1509 
Q 1178 888 1415 553 
Q 1653 219 2094 219 
z
M 1075 2569 
Q 1288 2803 1556 2918 
Q 1825 3034 2163 3034 
Q 2859 3034 3264 2615 
Q 3669 2197 3669 1472 
Q 3669 763 3233 336 
Q 2797 -91 2069 -91 
Q 1278 -91 853 498 
Q 428 1088 428 2181 
Q 428 3406 931 4078 
Q 1434 4750 2350 4750 
Q 2597 4750 2869 4703 
Q 3141 4656 3425 4563 
L 3425 3794 
L 3072 3794 
Q 3034 4109 2831 4275 
Q 2628 4441 2284 4441 
Q 1678 4441 1381 3981 
Q 1084 3522 1075 2569 
z
" transform="scale(0.015625)"/>
       </defs>
       <use xlink:href="#DejaVuSerif-36"/>
       <use xlink:href="#DejaVuSerif-30" x="63.623047"/>
       <use xlink:href="#DejaVuSerif-30" x="127.246094"/>
      </g>
     </g>
    </g>
    <g id="ytick_9">
     <g id="line2d_31">
      <g>
       <use xlink:href="#mc085848803" x="165.582296" y="9.859453" style="stroke: #000000"/>
      </g>
     </g>
     <g id="text_24">
      <!-- 800 -->
      <g transform="translate(145.221046 12.518906) scale(0.07 -0.07)">
       <defs>
        <path id="DejaVuSerif-38" d="M 2981 1275 
Q 2981 1775 2732 2051 
Q 2484 2328 2034 2328 
Q 1584 2328 1336 2051 
Q 1088 1775 1088 1275 
Q 1088 772 1336 495 
Q 1584 219 2034 219 
Q 2484 219 2732 495 
Q 2981 772 2981 1275 
z
M 2853 3541 
Q 2853 3966 2637 4203 
Q 2422 4441 2034 4441 
Q 1650 4441 1433 4203 
Q 1216 3966 1216 3541 
Q 1216 3113 1433 2875 
Q 1650 2638 2034 2638 
Q 2422 2638 2637 2875 
Q 2853 3113 2853 3541 
z
M 2516 2484 
Q 3047 2413 3344 2092 
Q 3641 1772 3641 1275 
Q 3641 619 3225 264 
Q 2809 -91 2034 -91 
Q 1263 -91 845 264 
Q 428 619 428 1275 
Q 428 1772 725 2092 
Q 1022 2413 1556 2484 
Q 1084 2569 832 2842 
Q 581 3116 581 3541 
Q 581 4103 968 4426 
Q 1356 4750 2034 4750 
Q 2713 4750 3100 4426 
Q 3488 4103 3488 3541 
Q 3488 3116 3236 2842 
Q 2984 2569 2516 2484 
z
" transform="scale(0.015625)"/>
       </defs>
       <use xlink:href="#DejaVuSerif-38"/>
       <use xlink:href="#DejaVuSerif-30" x="63.623047"/>
       <use xlink:href="#DejaVuSerif-30" x="127.246094"/>
      </g>
     </g>
    </g>
    <g id="text_25">
     <!-- $y_{\mathrm{CO_2}}$ (ppm) -->
     <g transform="translate(139.331045 60.925496) rotate(-90) scale(0.07 -0.07)">
      <defs>
       <path id="DejaVuSerif-4f" d="M 2625 244 
Q 3391 244 3781 770 
Q 4172 1297 4172 2328 
Q 4172 3363 3781 3889 
Q 3391 4416 2625 4416 
Q 1856 4416 1465 3889 
Q 1075 3363 1075 2328 
Q 1075 1297 1465 770 
Q 1856 244 2625 244 
z
M 2625 -91 
Q 2150 -91 1751 65 
Q 1353 222 1050 525 
Q 700 875 529 1319 
Q 359 1763 359 2328 
Q 359 2894 529 3339 
Q 700 3784 1050 4134 
Q 1356 4441 1750 4595 
Q 2144 4750 2625 4750 
Q 3641 4750 4266 4084 
Q 4891 3419 4891 2328 
Q 4891 1769 4719 1320 
Q 4547 872 4197 525 
Q 3891 219 3497 64 
Q 3103 -91 2625 -91 
z
" transform="scale(0.015625)"/>
       <path id="DejaVuSerif-70" d="M 1313 1825 
L 1313 1497 
Q 1313 897 1542 583 
Q 1772 269 2209 269 
Q 2650 269 2876 622 
Q 3103 975 3103 1663 
Q 3103 2353 2876 2703 
Q 2650 3053 2209 3053 
Q 1772 3053 1542 2737 
Q 1313 2422 1313 1825 
z
M 738 2988 
L 184 2988 
L 184 3322 
L 1313 3322 
L 1313 2803 
Q 1481 3116 1742 3264 
Q 2003 3413 2388 3413 
Q 3000 3413 3387 2928 
Q 3775 2444 3775 1663 
Q 3775 881 3387 395 
Q 3000 -91 2388 -91 
Q 2003 -91 1742 57 
Q 1481 206 1313 519 
L 1313 -997 
L 1856 -997 
L 1856 -1331 
L 184 -1331 
L 184 -997 
L 738 -997 
L 738 2988 
z
" transform="scale(0.015625)"/>
      </defs>
      <use xlink:href="#DejaVuSerif-Italic-79" transform="translate(0 0.015625)"/>
      <use xlink:href="#DejaVuSerif-43" transform="translate(56.494141 -15.55625) scale(0.7)"/>
      <use xlink:href="#DejaVuSerif-4f" transform="translate(110.053711 -15.55625) scale(0.7)"/>
      <use xlink:href="#DejaVuSerif-32" transform="translate(168.077258 -26.456562) scale(0.49)"/>
      <use xlink:href="#DejaVuSerif-20" transform="translate(203.664582 0.015625)"/>
      <use xlink:href="#DejaVuSerif-28" transform="translate(235.451691 0.015625)"/>
      <use xlink:href="#DejaVuSerif-70" transform="translate(274.465363 0.015625)"/>
      <use xlink:href="#DejaVuSerif-70" transform="translate(338.479035 0.015625)"/>
      <use xlink:href="#DejaVuSerif-6d" transform="translate(402.492707 0.015625)"/>
      <use xlink:href="#DejaVuSerif-29" transform="translate(497.316926 0.015625)"/>
     </g>
    </g>
   </g>
   <g id="line2d_32">
    <path d="M 169.123323 58.261019 
L 169.123323 58.246668 
L 180.926749 58.246668 
L 180.926749 58.253319 
L 192.730174 58.253319 
L 192.730174 58.243691 
L 204.5336 58.243691 
L 204.5336 56.269249 
L 216.337025 56.269249 
L 216.337025 58.088042 
L 228.14045 58.088042 
L 228.14045 58.055079 
L 239.943876 58.055079 
" clip-path="url(#p3cdec1dea1)" style="fill: none; stroke: #1f77b4; stroke-opacity: 0.8; stroke-width: 2; stroke-linecap: square"/>
   </g>
   <g id="line2d_33">
    <path d="M 169.123323 55.814285 
L 169.123323 53.326063 
L 180.926749 53.326063 
L 180.926749 50.38803 
L 192.730174 50.38803 
L 192.730174 48.284307 
L 204.5336 48.284307 
L 204.5336 40.477112 
L 216.337025 40.477112 
L 216.337025 36.759775 
L 228.14045 36.759775 
L 228.14045 28.125339 
L 239.943876 28.125339 
" clip-path="url(#p3cdec1dea1)" style="fill: none; stroke: #d62728; stroke-opacity: 0.8; stroke-width: 2; stroke-linecap: square"/>
   </g>
   <g id="line2d_34">
    <path d="M 169.123323 55.814285 
L 169.123323 52.317771 
L 180.926749 52.317771 
L 180.926749 44.5425 
L 192.730174 44.5425 
L 192.730174 36.441735 
L 204.5336 36.441735 
L 204.5336 27.37274 
L 216.337025 27.37274 
L 216.337025 27.456331 
L 228.14045 27.456331 
L 228.14045 22.52702 
L 239.943876 22.52702 
" clip-path="url(#p3cdec1dea1)" style="fill: none; stroke: #b3b3e1; stroke-opacity: 0.8; stroke-width: 2; stroke-linecap: square"/>
   </g>
   <g id="LineCollection_2">
    <path d="M 239.943876 28.34785 
L 239.943876 16.70619 
" clip-path="url(#p3cdec1dea1)" style="fill: none; stroke: #b3b3e1; stroke-opacity: 0.8; stroke-width: 2"/>
   </g>
   <g id="line2d_35">
    <g clip-path="url(#p3cdec1dea1)">
     <use xlink:href="#m3585a36388" x="239.943876" y="28.34785" style="fill: #b3b3e1; fill-opacity: 0.8; stroke: #b3b3e1; stroke-opacity: 0.8"/>
    </g>
   </g>
   <g id="line2d_36">
    <g clip-path="url(#p3cdec1dea1)">
     <use xlink:href="#m3585a36388" x="239.943876" y="16.70619" style="fill: #b3b3e1; fill-opacity: 0.8; stroke: #b3b3e1; stroke-opacity: 0.8"/>
    </g>
   </g>
   <g id="line2d_37">
    <g clip-path="url(#p3cdec1dea1)">
     <use xlink:href="#ma7b6826a24" x="239.943876" y="22.52702" style="fill: #b3b3e1; fill-opacity: 0.8; stroke: #b3b3e1; stroke-opacity: 0.8"/>
    </g>
   </g>
   <g id="patch_10">
    <path d="M 165.582296 74.40154 
L 165.582296 9.859453 
" style="fill: none; stroke: #000000; stroke-width: 1.5; stroke-linejoin: miter; stroke-linecap: square"/>
   </g>
   <g id="patch_11">
    <path d="M 165.582296 74.40154 
L 243.484904 74.40154 
" style="fill: none; stroke: #000000; stroke-width: 1.5; stroke-linejoin: miter; stroke-linecap: square"/>
   </g>
  </g>
  <g id="axes_4">
   <g id="patch_12">
    <path d="M 165.582296 163.503626 
L 243.484903 163.503626 
L 243.484903 98.96154 
L 165.582296 98.96154 
z
" style="fill: #ffffff"/>
   </g>
   <g id="matplotlib.axis_7">
    <g id="xtick_10">
     <g id="line2d_38">
      <g>
       <use xlink:href="#mc9b5478139" x="173.844693" y="163.503626" style="stroke: #000000"/>
      </g>
     </g>
     <g id="text_26">
      <!-- 13.30 -->
      <g transform="translate(163.82485 175.822532) scale(0.07 -0.07)">
       <use xlink:href="#DejaVuSerif-31"/>
       <use xlink:href="#DejaVuSerif-33" x="63.623047"/>
       <use xlink:href="#DejaVuSerif-2e" x="127.246094"/>
       <use xlink:href="#DejaVuSerif-33" x="159.033203"/>
       <use xlink:href="#DejaVuSerif-30" x="222.65625"/>
      </g>
     </g>
    </g>
    <g id="xtick_11">
     <g id="line2d_39">
      <g>
       <use xlink:href="#mc9b5478139" x="202.172914" y="163.503626" style="stroke: #000000"/>
      </g>
     </g>
     <g id="text_27">
      <!-- 13.35 -->
      <g transform="translate(192.153071 175.822532) scale(0.07 -0.07)">
       <use xlink:href="#DejaVuSerif-31"/>
       <use xlink:href="#DejaVuSerif-33" x="63.623047"/>
       <use xlink:href="#DejaVuSerif-2e" x="127.246094"/>
       <use xlink:href="#DejaVuSerif-33" x="159.033203"/>
       <use xlink:href="#DejaVuSerif-35" x="222.65625"/>
      </g>
     </g>
    </g>
    <g id="xtick_12">
     <g id="line2d_40">
      <g>
       <use xlink:href="#mc9b5478139" x="230.501136" y="163.503626" style="stroke: #000000"/>
      </g>
     </g>
     <g id="text_28">
      <!-- 13.40 -->
      <g transform="translate(220.481292 175.822532) scale(0.07 -0.07)">
       <use xlink:href="#DejaVuSerif-31"/>
       <use xlink:href="#DejaVuSerif-33" x="63.623047"/>
       <use xlink:href="#DejaVuSerif-2e" x="127.246094"/>
       <use xlink:href="#DejaVuSerif-34" x="159.033203"/>
       <use xlink:href="#DejaVuSerif-30" x="222.65625"/>
      </g>
     </g>
    </g>
    <g id="text_29">
     <!-- Time (days) -->
     <g transform="translate(183.744693 186.59722) scale(0.07 -0.07)">
      <use xlink:href="#DejaVuSerif-54"/>
      <use xlink:href="#DejaVuSerif-69" x="66.699219"/>
      <use xlink:href="#DejaVuSerif-6d" x="98.681641"/>
      <use xlink:href="#DejaVuSerif-65" x="193.505859"/>
      <use xlink:href="#DejaVuSerif-20" x="252.685547"/>
      <use xlink:href="#DejaVuSerif-28" x="284.472656"/>
      <use xlink:href="#DejaVuSerif-64" x="323.486328"/>
      <use xlink:href="#DejaVuSerif-61" x="387.5"/>
      <use xlink:href="#DejaVuSerif-79" x="447.119141"/>
      <use xlink:href="#DejaVuSerif-73" x="503.613281"/>
      <use xlink:href="#DejaVuSerif-29" x="554.931641"/>
     </g>
    </g>
   </g>
   <g id="matplotlib.axis_8">
    <g id="ytick_10">
     <g id="line2d_41">
      <g>
       <use xlink:href="#mc085848803" x="165.582296" y="163.503626" style="stroke: #000000"/>
      </g>
     </g>
     <g id="text_30">
      <!-- 400 -->
      <g transform="translate(145.221046 166.163079) scale(0.07 -0.07)">
       <use xlink:href="#DejaVuSerif-34"/>
       <use xlink:href="#DejaVuSerif-30" x="63.623047"/>
       <use xlink:href="#DejaVuSerif-30" x="127.246094"/>
      </g>
     </g>
    </g>
    <g id="ytick_11">
     <g id="line2d_42">
      <g>
       <use xlink:href="#mc085848803" x="165.582296" y="131.232583" style="stroke: #000000"/>
      </g>
     </g>
     <g id="text_31">
      <!-- 600 -->
      <g transform="translate(145.221046 133.892036) scale(0.07 -0.07)">
       <use xlink:href="#DejaVuSerif-36"/>
       <use xlink:href="#DejaVuSerif-30" x="63.623047"/>
       <use xlink:href="#DejaVuSerif-30" x="127.246094"/>
      </g>
     </g>
    </g>
    <g id="ytick_12">
     <g id="line2d_43">
      <g>
       <use xlink:href="#mc085848803" x="165.582296" y="98.96154" style="stroke: #000000"/>
      </g>
     </g>
     <g id="text_32">
      <!-- 800 -->
      <g transform="translate(145.221046 101.620993) scale(0.07 -0.07)">
       <use xlink:href="#DejaVuSerif-38"/>
       <use xlink:href="#DejaVuSerif-30" x="63.623047"/>
       <use xlink:href="#DejaVuSerif-30" x="127.246094"/>
      </g>
     </g>
    </g>
    <g id="text_33">
     <!-- $d_{\mathrm{CO_2}}$ (ppm) -->
     <g transform="translate(139.331045 150.272583) rotate(-90) scale(0.07 -0.07)">
      <use xlink:href="#DejaVuSerif-Italic-64" transform="translate(0 0.015625)"/>
      <use xlink:href="#DejaVuSerif-43" transform="translate(64.013672 -15.55625) scale(0.7)"/>
      <use xlink:href="#DejaVuSerif-4f" transform="translate(117.573242 -15.55625) scale(0.7)"/>
      <use xlink:href="#DejaVuSerif-32" transform="translate(175.596789 -26.456562) scale(0.49)"/>
      <use xlink:href="#DejaVuSerif-20" transform="translate(211.184113 0.015625)"/>
      <use xlink:href="#DejaVuSerif-28" transform="translate(242.971223 0.015625)"/>
      <use xlink:href="#DejaVuSerif-70" transform="translate(281.984895 0.015625)"/>
      <use xlink:href="#DejaVuSerif-70" transform="translate(345.998566 0.015625)"/>
      <use xlink:href="#DejaVuSerif-6d" transform="translate(410.012238 0.015625)"/>
      <use xlink:href="#DejaVuSerif-29" transform="translate(504.836457 0.015625)"/>
     </g>
    </g>
   </g>
   <g id="line2d_44">
    <path d="M 169.123323 154.370921 
L 180.926749 152.4992 
L 192.730174 154.66136 
L 204.5336 150.62748 
L 216.337025 155.064748 
L 228.14045 154.080481 
L 239.943876 156.629894 
" clip-path="url(#pd162cde44b)" style="fill: none; stroke: #7f7f7f; stroke-width: 2; stroke-linecap: square"/>
   </g>
   <g id="patch_13">
    <path d="M 165.582296 163.503626 
L 165.582296 98.96154 
" style="fill: none; stroke: #000000; stroke-width: 1.5; stroke-linejoin: miter; stroke-linecap: square"/>
   </g>
   <g id="patch_14">
    <path d="M 165.582296 163.503626 
L 243.484904 163.503626 
" style="fill: none; stroke: #000000; stroke-width: 1.5; stroke-linejoin: miter; stroke-linecap: square"/>
   </g>
  </g>
  <g id="axes_5">
   <g id="patch_15">
    <path d="M 285.084904 74.40154 
L 362.987511 74.40154 
L 362.987511 9.859453 
L 285.084904 9.859453 
z
" style="fill: #ffffff"/>
   </g>
   <g id="PolyCollection_5">
    <defs>
     <path id="mc5bde29340" d="M 288.625931 -153.283286 
L 288.625931 -153.283286 
L 288.625931 -153.279837 
L 300.429357 -153.279837 
L 300.429357 -153.253225 
L 312.232782 -153.253225 
L 312.232782 -153.338322 
L 324.036208 -153.338322 
L 324.036208 -153.242658 
L 335.839633 -153.242658 
L 335.839633 -153.626921 
L 347.643058 -153.626921 
L 347.643058 -153.049513 
L 359.446484 -153.049513 
L 359.446484 -153.659738 
L 359.446484 -153.659738 
L 347.643058 -153.659738 
L 347.643058 -154.123226 
L 335.839633 -154.123226 
L 335.839633 -153.662216 
L 324.036208 -153.662216 
L 324.036208 -153.870706 
L 312.232782 -153.870706 
L 312.232782 -153.662315 
L 300.429357 -153.662315 
L 300.429357 -153.733328 
L 288.625931 -153.733328 
L 288.625931 -153.283286 
z
" style="stroke: #1f77b4; stroke-opacity: 0.3"/>
    </defs>
    <g clip-path="url(#pd7d4c2fdba)">
     <use xlink:href="#mc5bde29340" x="0" y="195.352532" style="fill: #1f77b4; fill-opacity: 0.3; stroke: #1f77b4; stroke-opacity: 0.3"/>
    </g>
   </g>
   <g id="PolyCollection_6">
    <defs>
     <path id="m5d6af858f7" d="M 288.625931 -153.292831 
L 288.625931 -153.292831 
L 288.625931 -153.283149 
L 300.429357 -153.283149 
L 300.429357 -153.226524 
L 312.232782 -153.226524 
L 312.232782 -153.316054 
L 324.036208 -153.316054 
L 324.036208 -153.257315 
L 335.839633 -153.257315 
L 335.839633 -154.847448 
L 347.643058 -154.847448 
L 347.643058 -153.070068 
L 359.446484 -153.070068 
L 359.446484 -153.574878 
L 359.446484 -153.574878 
L 347.643058 -153.574878 
L 347.643058 -155.414076 
L 335.839633 -155.414076 
L 335.839633 -153.595877 
L 324.036208 -153.595877 
L 324.036208 -153.791641 
L 312.232782 -153.791641 
L 312.232782 -153.556811 
L 300.429357 -153.556811 
L 300.429357 -153.739024 
L 288.625931 -153.739024 
L 288.625931 -153.292831 
z
" style="stroke: #d62728; stroke-opacity: 0.3"/>
    </defs>
    <g clip-path="url(#pd7d4c2fdba)">
     <use xlink:href="#m5d6af858f7" x="0" y="195.352532" style="fill: #d62728; fill-opacity: 0.3; stroke: #d62728; stroke-opacity: 0.3"/>
    </g>
   </g>
   <g id="matplotlib.axis_9">
    <g id="xtick_13">
     <g id="line2d_45">
      <g>
       <use xlink:href="#mc9b5478139" x="293.347301" y="74.40154" style="stroke: #000000"/>
      </g>
     </g>
     <g id="text_34">
      <!-- 13.30 -->
      <g transform="translate(283.327458 86.720446) scale(0.07 -0.07)">
       <use xlink:href="#DejaVuSerif-31"/>
       <use xlink:href="#DejaVuSerif-33" x="63.623047"/>
       <use xlink:href="#DejaVuSerif-2e" x="127.246094"/>
       <use xlink:href="#DejaVuSerif-33" x="159.033203"/>
       <use xlink:href="#DejaVuSerif-30" x="222.65625"/>
      </g>
     </g>
    </g>
    <g id="xtick_14">
     <g id="line2d_46">
      <g>
       <use xlink:href="#mc9b5478139" x="321.675522" y="74.40154" style="stroke: #000000"/>
      </g>
     </g>
     <g id="text_35">
      <!-- 13.35 -->
      <g transform="translate(311.655679 86.720446) scale(0.07 -0.07)">
       <use xlink:href="#DejaVuSerif-31"/>
       <use xlink:href="#DejaVuSerif-33" x="63.623047"/>
       <use xlink:href="#DejaVuSerif-2e" x="127.246094"/>
       <use xlink:href="#DejaVuSerif-33" x="159.033203"/>
       <use xlink:href="#DejaVuSerif-35" x="222.65625"/>
      </g>
     </g>
    </g>
    <g id="xtick_15">
     <g id="line2d_47">
      <g>
       <use xlink:href="#mc9b5478139" x="350.003744" y="74.40154" style="stroke: #000000"/>
      </g>
     </g>
     <g id="text_36">
      <!-- 13.40 -->
      <g transform="translate(339.9839 86.720446) scale(0.07 -0.07)">
       <use xlink:href="#DejaVuSerif-31"/>
       <use xlink:href="#DejaVuSerif-33" x="63.623047"/>
       <use xlink:href="#DejaVuSerif-2e" x="127.246094"/>
       <use xlink:href="#DejaVuSerif-34" x="159.033203"/>
       <use xlink:href="#DejaVuSerif-30" x="222.65625"/>
      </g>
     </g>
    </g>
   </g>
   <g id="matplotlib.axis_10">
    <g id="ytick_13">
     <g id="line2d_48">
      <g>
       <use xlink:href="#mc085848803" x="285.084904" y="74.40154" style="stroke: #000000"/>
      </g>
     </g>
     <g id="text_37">
      <!-- 5 -->
      <g transform="translate(273.631154 77.060993) scale(0.07 -0.07)">
       <use xlink:href="#DejaVuSerif-35"/>
      </g>
     </g>
    </g>
    <g id="ytick_14">
     <g id="line2d_49">
      <g>
       <use xlink:href="#mc085848803" x="285.084904" y="42.130496" style="stroke: #000000"/>
      </g>
     </g>
     <g id="text_38">
      <!-- 10 -->
      <g transform="translate(269.177404 44.789949) scale(0.07 -0.07)">
       <use xlink:href="#DejaVuSerif-31"/>
       <use xlink:href="#DejaVuSerif-30" x="63.623047"/>
      </g>
     </g>
    </g>
    <g id="ytick_15">
     <g id="line2d_50">
      <g>
       <use xlink:href="#mc085848803" x="285.084904" y="9.859453" style="stroke: #000000"/>
      </g>
     </g>
     <g id="text_39">
      <!-- 15 -->
      <g transform="translate(269.177404 12.518906) scale(0.07 -0.07)">
       <use xlink:href="#DejaVuSerif-31"/>
       <use xlink:href="#DejaVuSerif-35" x="63.623047"/>
      </g>
     </g>
    </g>
    <g id="text_40">
     <!-- $y_{\mathrm{T}}$  ($^\circ$C) -->
     <g transform="translate(263.567404 55.745496) rotate(-90) scale(0.07 -0.07)">
      <defs>
       <path id="DejaVuSerif-2218" d="M 2025 2006 
Q 2025 2197 1890 2333 
Q 1756 2469 1565 2469 
Q 1375 2469 1244 2336 
Q 1113 2203 1113 2009 
Q 1113 1816 1244 1686 
Q 1375 1556 1569 1556 
Q 1763 1556 1894 1687 
Q 2025 1819 2025 2006 
z
M 678 2006 
Q 678 2384 936 2645 
Q 1194 2906 1573 2906 
Q 1953 2906 2200 2641 
Q 2459 2388 2459 2011 
Q 2459 1634 2200 1378 
Q 1941 1122 1562 1122 
Q 1184 1122 931 1375 
Q 678 1628 678 2006 
z
" transform="scale(0.015625)"/>
      </defs>
      <use xlink:href="#DejaVuSerif-Italic-79" transform="translate(0 0.015625)"/>
      <use xlink:href="#DejaVuSerif-54" transform="translate(56.494141 -15.55625) scale(0.7)"/>
      <use xlink:href="#DejaVuSerif-20" transform="translate(105.778906 0.015625)"/>
      <use xlink:href="#DejaVuSerif-20" transform="translate(137.566016 0.015625)"/>
      <use xlink:href="#DejaVuSerif-28" transform="translate(169.353125 0.015625)"/>
      <use xlink:href="#DejaVuSerif-2218" transform="translate(222.550547 36.35) scale(0.7)"/>
      <use xlink:href="#DejaVuSerif-43" transform="translate(272.737656 0.015625)"/>
      <use xlink:href="#DejaVuSerif-29" transform="translate(349.251328 0.015625)"/>
     </g>
    </g>
   </g>
   <g id="line2d_51">
    <path d="M 288.625931 42.069246 
L 288.625931 41.84595 
L 300.429357 41.84595 
L 300.429357 41.894762 
L 312.232782 41.894762 
L 312.232782 41.748018 
L 324.036208 41.748018 
L 324.036208 41.900095 
L 335.839633 41.900095 
L 335.839633 41.477459 
L 347.643058 41.477459 
L 347.643058 41.997907 
L 359.446484 41.997907 
" clip-path="url(#pd7d4c2fdba)" style="fill: none; stroke: #1f77b4; stroke-opacity: 0.8; stroke-width: 2; stroke-linecap: square"/>
   </g>
   <g id="line2d_52">
    <path d="M 288.625931 42.059701 
L 288.625931 41.841445 
L 300.429357 41.841445 
L 300.429357 41.960865 
L 312.232782 41.960865 
L 312.232782 41.798685 
L 324.036208 41.798685 
L 324.036208 41.925936 
L 335.839633 41.925936 
L 335.839633 40.22177 
L 347.643058 40.22177 
L 347.643058 42.030059 
L 359.446484 42.030059 
" clip-path="url(#pd7d4c2fdba)" style="fill: none; stroke: #d62728; stroke-opacity: 0.8; stroke-width: 2; stroke-linecap: square"/>
   </g>
   <g id="line2d_53">
    <path d="M 288.625931 42.059701 
L 288.625931 42.92515 
L 300.429357 42.92515 
L 300.429357 40.663994 
L 312.232782 40.663994 
L 312.232782 40.474388 
L 324.036208 40.474388 
L 324.036208 42.165657 
L 335.839633 42.165657 
L 335.839633 40.098167 
L 347.643058 40.098167 
L 347.643058 39.954575 
L 359.446484 39.954575 
" clip-path="url(#pd7d4c2fdba)" style="fill: none; stroke: #b3b3e1; stroke-opacity: 0.8; stroke-width: 2; stroke-linecap: square"/>
   </g>
   <g id="LineCollection_3">
    <path d="M 359.446484 43.290476 
L 359.446484 36.618675 
" clip-path="url(#pd7d4c2fdba)" style="fill: none; stroke: #b3b3e1; stroke-opacity: 0.8; stroke-width: 2"/>
   </g>
   <g id="line2d_54">
    <g clip-path="url(#pd7d4c2fdba)">
     <use xlink:href="#m3585a36388" x="359.446484" y="43.290476" style="fill: #b3b3e1; fill-opacity: 0.8; stroke: #b3b3e1; stroke-opacity: 0.8"/>
    </g>
   </g>
   <g id="line2d_55">
    <g clip-path="url(#pd7d4c2fdba)">
     <use xlink:href="#m3585a36388" x="359.446484" y="36.618675" style="fill: #b3b3e1; fill-opacity: 0.8; stroke: #b3b3e1; stroke-opacity: 0.8"/>
    </g>
   </g>
   <g id="line2d_56">
    <g clip-path="url(#pd7d4c2fdba)">
     <use xlink:href="#ma7b6826a24" x="359.446484" y="39.954575" style="fill: #b3b3e1; fill-opacity: 0.8; stroke: #b3b3e1; stroke-opacity: 0.8"/>
    </g>
   </g>
   <g id="patch_16">
    <path d="M 285.084904 74.40154 
L 285.084904 9.859453 
" style="fill: none; stroke: #000000; stroke-width: 1.5; stroke-linejoin: miter; stroke-linecap: square"/>
   </g>
   <g id="patch_17">
    <path d="M 285.084904 74.40154 
L 362.987512 74.40154 
" style="fill: none; stroke: #000000; stroke-width: 1.5; stroke-linejoin: miter; stroke-linecap: square"/>
   </g>
  </g>
  <g id="axes_6">
   <g id="patch_18">
    <path d="M 285.084904 163.503626 
L 362.987511 163.503626 
L 362.987511 98.96154 
L 285.084904 98.96154 
z
" style="fill: #ffffff"/>
   </g>
   <g id="matplotlib.axis_11">
    <g id="xtick_16">
     <g id="line2d_57">
      <g>
       <use xlink:href="#mc9b5478139" x="293.347301" y="163.503626" style="stroke: #000000"/>
      </g>
     </g>
     <g id="text_41">
      <!-- 13.30 -->
      <g transform="translate(283.327458 175.822532) scale(0.07 -0.07)">
       <use xlink:href="#DejaVuSerif-31"/>
       <use xlink:href="#DejaVuSerif-33" x="63.623047"/>
       <use xlink:href="#DejaVuSerif-2e" x="127.246094"/>
       <use xlink:href="#DejaVuSerif-33" x="159.033203"/>
       <use xlink:href="#DejaVuSerif-30" x="222.65625"/>
      </g>
     </g>
    </g>
    <g id="xtick_17">
     <g id="line2d_58">
      <g>
       <use xlink:href="#mc9b5478139" x="321.675522" y="163.503626" style="stroke: #000000"/>
      </g>
     </g>
     <g id="text_42">
      <!-- 13.35 -->
      <g transform="translate(311.655679 175.822532) scale(0.07 -0.07)">
       <use xlink:href="#DejaVuSerif-31"/>
       <use xlink:href="#DejaVuSerif-33" x="63.623047"/>
       <use xlink:href="#DejaVuSerif-2e" x="127.246094"/>
       <use xlink:href="#DejaVuSerif-33" x="159.033203"/>
       <use xlink:href="#DejaVuSerif-35" x="222.65625"/>
      </g>
     </g>
    </g>
    <g id="xtick_18">
     <g id="line2d_59">
      <g>
       <use xlink:href="#mc9b5478139" x="350.003744" y="163.503626" style="stroke: #000000"/>
      </g>
     </g>
     <g id="text_43">
      <!-- 13.40 -->
      <g transform="translate(339.9839 175.822532) scale(0.07 -0.07)">
       <use xlink:href="#DejaVuSerif-31"/>
       <use xlink:href="#DejaVuSerif-33" x="63.623047"/>
       <use xlink:href="#DejaVuSerif-2e" x="127.246094"/>
       <use xlink:href="#DejaVuSerif-34" x="159.033203"/>
       <use xlink:href="#DejaVuSerif-30" x="222.65625"/>
      </g>
     </g>
    </g>
    <g id="text_44">
     <!-- Time (days) -->
     <g transform="translate(303.247301 186.59722) scale(0.07 -0.07)">
      <use xlink:href="#DejaVuSerif-54"/>
      <use xlink:href="#DejaVuSerif-69" x="66.699219"/>
      <use xlink:href="#DejaVuSerif-6d" x="98.681641"/>
      <use xlink:href="#DejaVuSerif-65" x="193.505859"/>
      <use xlink:href="#DejaVuSerif-20" x="252.685547"/>
      <use xlink:href="#DejaVuSerif-28" x="284.472656"/>
      <use xlink:href="#DejaVuSerif-64" x="323.486328"/>
      <use xlink:href="#DejaVuSerif-61" x="387.5"/>
      <use xlink:href="#DejaVuSerif-79" x="447.119141"/>
      <use xlink:href="#DejaVuSerif-73" x="503.613281"/>
      <use xlink:href="#DejaVuSerif-29" x="554.931641"/>
     </g>
    </g>
   </g>
   <g id="matplotlib.axis_12">
    <g id="ytick_16">
     <g id="line2d_60">
      <g>
       <use xlink:href="#mc085848803" x="285.084904" y="163.503626" style="stroke: #000000"/>
      </g>
     </g>
     <g id="text_45">
      <!-- 5 -->
      <g transform="translate(273.631154 166.163079) scale(0.07 -0.07)">
       <use xlink:href="#DejaVuSerif-35"/>
      </g>
     </g>
    </g>
    <g id="ytick_17">
     <g id="line2d_61">
      <g>
       <use xlink:href="#mc085848803" x="285.084904" y="131.232583" style="stroke: #000000"/>
      </g>
     </g>
     <g id="text_46">
      <!-- 10 -->
      <g transform="translate(269.177404 133.892036) scale(0.07 -0.07)">
       <use xlink:href="#DejaVuSerif-31"/>
       <use xlink:href="#DejaVuSerif-30" x="63.623047"/>
      </g>
     </g>
    </g>
    <g id="ytick_18">
     <g id="line2d_62">
      <g>
       <use xlink:href="#mc085848803" x="285.084904" y="98.96154" style="stroke: #000000"/>
      </g>
     </g>
     <g id="text_47">
      <!-- 15 -->
      <g transform="translate(269.177404 101.620993) scale(0.07 -0.07)">
       <use xlink:href="#DejaVuSerif-31"/>
       <use xlink:href="#DejaVuSerif-35" x="63.623047"/>
      </g>
     </g>
    </g>
    <g id="text_48">
     <!-- $d_{\mathrm{T}}$ ($^\circ$C) -->
     <g transform="translate(263.721622 143.972583) rotate(-90) scale(0.07 -0.07)">
      <use xlink:href="#DejaVuSerif-Italic-64" transform="translate(0 0.015625)"/>
      <use xlink:href="#DejaVuSerif-54" transform="translate(64.013672 -15.55625) scale(0.7)"/>
      <use xlink:href="#DejaVuSerif-20" transform="translate(113.298438 0.015625)"/>
      <use xlink:href="#DejaVuSerif-28" transform="translate(145.085547 0.015625)"/>
      <use xlink:href="#DejaVuSerif-2218" transform="translate(198.282969 36.35) scale(0.7)"/>
      <use xlink:href="#DejaVuSerif-43" transform="translate(248.470078 0.015625)"/>
      <use xlink:href="#DejaVuSerif-29" transform="translate(324.98375 0.015625)"/>
     </g>
    </g>
   </g>
   <g id="line2d_63">
    <path d="M 288.625931 155.113155 
L 300.429357 157.694838 
L 312.232782 158.340259 
L 324.036208 157.049417 
L 335.839633 155.758576 
L 347.643058 157.694838 
L 359.446484 159.631101 
" clip-path="url(#p8e12c97366)" style="fill: none; stroke: #7f7f7f; stroke-width: 2; stroke-linecap: square"/>
   </g>
   <g id="patch_19">
    <path d="M 285.084904 163.503626 
L 285.084904 98.96154 
" style="fill: none; stroke: #000000; stroke-width: 1.5; stroke-linejoin: miter; stroke-linecap: square"/>
   </g>
   <g id="patch_20">
    <path d="M 285.084904 163.503626 
L 362.987512 163.503626 
" style="fill: none; stroke: #000000; stroke-width: 1.5; stroke-linejoin: miter; stroke-linecap: square"/>
   </g>
  </g>
  <g id="axes_7">
   <g id="patch_21">
    <path d="M 404.587512 74.40154 
L 482.49012 74.40154 
L 482.49012 9.859453 
L 404.587512 9.859453 
z
" style="fill: #ffffff"/>
   </g>
   <g id="PolyCollection_7">
    <defs>
     <path id="m02d2fd785d" d="M 408.128539 -147.219179 
L 408.128539 -147.219179 
L 408.128539 -147.063875 
L 419.931965 -147.063875 
L 419.931965 -145.257226 
L 431.73539 -145.257226 
L 431.73539 -146.643939 
L 443.538816 -146.643939 
L 443.538816 -147.296802 
L 455.342241 -147.296802 
L 455.342241 -147.606297 
L 467.145666 -147.606297 
L 467.145666 -145.463036 
L 478.949092 -145.463036 
L 478.949092 -153.72636 
L 478.949092 -153.72636 
L 467.145666 -153.72636 
L 467.145666 -155.788136 
L 455.342241 -155.788136 
L 455.342241 -154.340266 
L 443.538816 -154.340266 
L 443.538816 -154.176671 
L 431.73539 -154.176671 
L 431.73539 -154.188204 
L 419.931965 -154.188204 
L 419.931965 -154.341895 
L 408.128539 -154.341895 
L 408.128539 -147.219179 
z
" style="stroke: #1f77b4; stroke-opacity: 0.3"/>
    </defs>
    <g clip-path="url(#p2a34654307)">
     <use xlink:href="#m02d2fd785d" x="0" y="195.352532" style="fill: #1f77b4; fill-opacity: 0.3; stroke: #1f77b4; stroke-opacity: 0.3"/>
    </g>
   </g>
   <g id="PolyCollection_8">
    <defs>
     <path id="m939ccf9d90" d="M 408.128539 -146.955647 
L 408.128539 -146.955647 
L 408.128539 -146.83874 
L 419.931965 -146.83874 
L 419.931965 -145.226999 
L 431.73539 -145.226999 
L 431.73539 -147.070512 
L 443.538816 -147.070512 
L 443.538816 -147.594223 
L 455.342241 -147.594223 
L 455.342241 -147.566832 
L 467.145666 -147.566832 
L 467.145666 -145.794868 
L 478.949092 -145.794868 
L 478.949092 -154.323359 
L 478.949092 -154.323359 
L 467.145666 -154.323359 
L 467.145666 -156.179768 
L 455.342241 -156.179768 
L 455.342241 -154.891469 
L 443.538816 -154.891469 
L 443.538816 -154.666333 
L 431.73539 -154.666333 
L 431.73539 -154.12163 
L 419.931965 -154.12163 
L 419.931965 -154.014946 
L 408.128539 -154.014946 
L 408.128539 -146.955647 
z
" style="stroke: #d62728; stroke-opacity: 0.3"/>
    </defs>
    <g clip-path="url(#p2a34654307)">
     <use xlink:href="#m939ccf9d90" x="0" y="195.352532" style="fill: #d62728; fill-opacity: 0.3; stroke: #d62728; stroke-opacity: 0.3"/>
    </g>
   </g>
   <g id="matplotlib.axis_13">
    <g id="xtick_19">
     <g id="line2d_64">
      <g>
       <use xlink:href="#mc9b5478139" x="412.849909" y="74.40154" style="stroke: #000000"/>
      </g>
     </g>
     <g id="text_49">
      <!-- 13.30 -->
      <g transform="translate(402.830066 86.720446) scale(0.07 -0.07)">
       <use xlink:href="#DejaVuSerif-31"/>
       <use xlink:href="#DejaVuSerif-33" x="63.623047"/>
       <use xlink:href="#DejaVuSerif-2e" x="127.246094"/>
       <use xlink:href="#DejaVuSerif-33" x="159.033203"/>
       <use xlink:href="#DejaVuSerif-30" x="222.65625"/>
      </g>
     </g>
    </g>
    <g id="xtick_20">
     <g id="line2d_65">
      <g>
       <use xlink:href="#mc9b5478139" x="441.17813" y="74.40154" style="stroke: #000000"/>
      </g>
     </g>
     <g id="text_50">
      <!-- 13.35 -->
      <g transform="translate(431.158287 86.720446) scale(0.07 -0.07)">
       <use xlink:href="#DejaVuSerif-31"/>
       <use xlink:href="#DejaVuSerif-33" x="63.623047"/>
       <use xlink:href="#DejaVuSerif-2e" x="127.246094"/>
       <use xlink:href="#DejaVuSerif-33" x="159.033203"/>
       <use xlink:href="#DejaVuSerif-35" x="222.65625"/>
      </g>
     </g>
    </g>
    <g id="xtick_21">
     <g id="line2d_66">
      <g>
       <use xlink:href="#mc9b5478139" x="469.506352" y="74.40154" style="stroke: #000000"/>
      </g>
     </g>
     <g id="text_51">
      <!-- 13.40 -->
      <g transform="translate(459.486508 86.720446) scale(0.07 -0.07)">
       <use xlink:href="#DejaVuSerif-31"/>
       <use xlink:href="#DejaVuSerif-33" x="63.623047"/>
       <use xlink:href="#DejaVuSerif-2e" x="127.246094"/>
       <use xlink:href="#DejaVuSerif-34" x="159.033203"/>
       <use xlink:href="#DejaVuSerif-30" x="222.65625"/>
      </g>
     </g>
    </g>
   </g>
   <g id="matplotlib.axis_14">
    <g id="ytick_19">
     <g id="line2d_67">
      <g>
       <use xlink:href="#mc085848803" x="404.587512" y="74.40154" style="stroke: #000000"/>
      </g>
     </g>
     <g id="text_52">
      <!-- 60 -->
      <g transform="translate(388.680012 77.060993) scale(0.07 -0.07)">
       <use xlink:href="#DejaVuSerif-36"/>
       <use xlink:href="#DejaVuSerif-30" x="63.623047"/>
      </g>
     </g>
    </g>
    <g id="ytick_20">
     <g id="line2d_68">
      <g>
       <use xlink:href="#mc085848803" x="404.587512" y="42.130496" style="stroke: #000000"/>
      </g>
     </g>
     <g id="text_53">
      <!-- 80 -->
      <g transform="translate(388.680012 44.789949) scale(0.07 -0.07)">
       <use xlink:href="#DejaVuSerif-38"/>
       <use xlink:href="#DejaVuSerif-30" x="63.623047"/>
      </g>
     </g>
    </g>
    <g id="ytick_21">
     <g id="line2d_69">
      <g>
       <use xlink:href="#mc085848803" x="404.587512" y="9.859453" style="stroke: #000000"/>
      </g>
     </g>
     <g id="text_54">
      <!-- 100 -->
      <g transform="translate(384.226262 12.518906) scale(0.07 -0.07)">
       <use xlink:href="#DejaVuSerif-31"/>
       <use xlink:href="#DejaVuSerif-30" x="63.623047"/>
       <use xlink:href="#DejaVuSerif-30" x="127.246094"/>
      </g>
     </g>
    </g>
    <g id="text_55">
     <!-- $y_{\mathrm{RH}}$  (%) -->
     <g transform="translate(378.616262 56.480496) rotate(-90) scale(0.07 -0.07)">
      <defs>
       <path id="DejaVuSerif-48" d="M 353 0 
L 353 331 
L 947 331 
L 947 4331 
L 353 4331 
L 353 4666 
L 2175 4666 
L 2175 4331 
L 1581 4331 
L 1581 2719 
L 4000 2719 
L 4000 4331 
L 3406 4331 
L 3406 4666 
L 5228 4666 
L 5228 4331 
L 4634 4331 
L 4634 331 
L 5228 331 
L 5228 0 
L 3406 0 
L 3406 331 
L 4000 331 
L 4000 2338 
L 1581 2338 
L 1581 331 
L 2175 331 
L 2175 0 
L 353 0 
z
" transform="scale(0.015625)"/>
       <path id="DejaVuSerif-25" d="M 1434 4459 
Q 1159 4459 1004 4200 
Q 850 3941 850 3475 
Q 850 3016 1008 2753 
Q 1166 2491 1434 2491 
Q 1700 2491 1854 2752 
Q 2009 3013 2009 3475 
Q 2009 3938 1854 4198 
Q 1700 4459 1434 4459 
z
M 4653 2169 
Q 4381 2169 4226 1906 
Q 4072 1644 4072 1178 
Q 4072 719 4228 458 
Q 4384 197 4653 197 
Q 4922 197 5075 458 
Q 5228 719 5228 1178 
Q 5228 1641 5073 1905 
Q 4919 2169 4653 2169 
z
M 4653 2450 
Q 5147 2450 5437 2106 
Q 5728 1763 5728 1178 
Q 5728 594 5436 251 
Q 5144 -91 4653 -91 
Q 4153 -91 3862 251 
Q 3572 594 3572 1178 
Q 3572 1766 3864 2108 
Q 4156 2450 4653 2450 
z
M 4263 4750 
L 4738 4750 
L 1819 -91 
L 1344 -91 
L 4263 4750 
z
M 1428 4750 
Q 1922 4750 2215 4408 
Q 2509 4066 2509 3481 
Q 2509 2891 2217 2550 
Q 1925 2209 1428 2209 
Q 931 2209 642 2551 
Q 353 2894 353 3481 
Q 353 4063 643 4406 
Q 934 4750 1428 4750 
z
" transform="scale(0.015625)"/>
      </defs>
      <use xlink:href="#DejaVuSerif-Italic-79" transform="translate(0 0.015625)"/>
      <use xlink:href="#DejaVuSerif-52" transform="translate(56.494141 -15.55625) scale(0.7)"/>
      <use xlink:href="#DejaVuSerif-48" transform="translate(109.199219 -15.55625) scale(0.7)"/>
      <use xlink:href="#DejaVuSerif-20" transform="translate(172.839453 0.015625)"/>
      <use xlink:href="#DejaVuSerif-20" transform="translate(204.626562 0.015625)"/>
      <use xlink:href="#DejaVuSerif-28" transform="translate(236.413672 0.015625)"/>
      <use xlink:href="#DejaVuSerif-25" transform="translate(275.427344 0.015625)"/>
      <use xlink:href="#DejaVuSerif-29" transform="translate(370.446875 0.015625)"/>
     </g>
    </g>
   </g>
   <g id="line2d_70">
    <path d="M 408.128539 48.133354 
L 408.128539 44.649648 
L 419.931965 44.649648 
L 419.931965 45.629817 
L 431.73539 45.629817 
L 431.73539 44.942227 
L 443.538816 44.942227 
L 443.538816 44.533998 
L 455.342241 44.533998 
L 455.342241 43.655316 
L 467.145666 43.655316 
L 467.145666 45.757834 
L 478.949092 45.757834 
" clip-path="url(#p2a34654307)" style="fill: none; stroke: #1f77b4; stroke-opacity: 0.8; stroke-width: 2; stroke-linecap: square"/>
   </g>
   <g id="line2d_71">
    <path d="M 408.128539 48.396886 
L 408.128539 44.925689 
L 419.931965 44.925689 
L 419.931965 45.678218 
L 431.73539 45.678218 
L 431.73539 44.48411 
L 443.538816 44.48411 
L 443.538816 44.109686 
L 455.342241 44.109686 
L 455.342241 43.479232 
L 467.145666 43.479232 
L 467.145666 45.293419 
L 478.949092 45.293419 
" clip-path="url(#p2a34654307)" style="fill: none; stroke: #d62728; stroke-opacity: 0.8; stroke-width: 2; stroke-linecap: square"/>
   </g>
   <g id="line2d_72">
    <path d="M 408.128539 48.396886 
L 408.128539 44.048214 
L 419.931965 44.048214 
L 419.931965 42.793099 
L 431.73539 42.793099 
L 431.73539 39.393351 
L 443.538816 39.393351 
L 443.538816 39.526246 
L 455.342241 39.526246 
L 455.342241 42.291095 
L 467.145666 42.291095 
L 467.145666 46.412781 
L 478.949092 46.412781 
" clip-path="url(#p2a34654307)" style="fill: none; stroke: #b3b3e1; stroke-opacity: 0.8; stroke-width: 2; stroke-linecap: square"/>
   </g>
   <g id="LineCollection_4">
    <path d="M 478.949092 52.652875 
L 478.949092 40.172686 
" clip-path="url(#p2a34654307)" style="fill: none; stroke: #b3b3e1; stroke-opacity: 0.8; stroke-width: 2"/>
   </g>
   <g id="line2d_73">
    <g clip-path="url(#p2a34654307)">
     <use xlink:href="#m3585a36388" x="478.949092" y="52.652875" style="fill: #b3b3e1; fill-opacity: 0.8; stroke: #b3b3e1; stroke-opacity: 0.8"/>
    </g>
   </g>
   <g id="line2d_74">
    <g clip-path="url(#p2a34654307)">
     <use xlink:href="#m3585a36388" x="478.949092" y="40.172686" style="fill: #b3b3e1; fill-opacity: 0.8; stroke: #b3b3e1; stroke-opacity: 0.8"/>
    </g>
   </g>
   <g id="line2d_75">
    <g clip-path="url(#p2a34654307)">
     <use xlink:href="#ma7b6826a24" x="478.949092" y="46.412781" style="fill: #b3b3e1; fill-opacity: 0.8; stroke: #b3b3e1; stroke-opacity: 0.8"/>
    </g>
   </g>
   <g id="patch_22">
    <path d="M 404.587512 74.40154 
L 404.587512 9.859453 
" style="fill: none; stroke: #000000; stroke-width: 1.5; stroke-linejoin: miter; stroke-linecap: square"/>
   </g>
   <g id="patch_23">
    <path d="M 404.587512 74.40154 
L 482.49012 74.40154 
" style="fill: none; stroke: #000000; stroke-width: 1.5; stroke-linejoin: miter; stroke-linecap: square"/>
   </g>
  </g>
  <g id="axes_8">
   <g id="patch_24">
    <path d="M 404.587512 163.503626 
L 482.49012 163.503626 
L 482.49012 98.96154 
L 404.587512 98.96154 
z
" style="fill: #ffffff"/>
   </g>
   <g id="matplotlib.axis_15">
    <g id="xtick_22">
     <g id="line2d_76">
      <g>
       <use xlink:href="#mc9b5478139" x="412.849909" y="163.503626" style="stroke: #000000"/>
      </g>
     </g>
     <g id="text_56">
      <!-- 13.30 -->
      <g transform="translate(402.830066 175.822532) scale(0.07 -0.07)">
       <use xlink:href="#DejaVuSerif-31"/>
       <use xlink:href="#DejaVuSerif-33" x="63.623047"/>
       <use xlink:href="#DejaVuSerif-2e" x="127.246094"/>
       <use xlink:href="#DejaVuSerif-33" x="159.033203"/>
       <use xlink:href="#DejaVuSerif-30" x="222.65625"/>
      </g>
     </g>
    </g>
    <g id="xtick_23">
     <g id="line2d_77">
      <g>
       <use xlink:href="#mc9b5478139" x="441.17813" y="163.503626" style="stroke: #000000"/>
      </g>
     </g>
     <g id="text_57">
      <!-- 13.35 -->
      <g transform="translate(431.158287 175.822532) scale(0.07 -0.07)">
       <use xlink:href="#DejaVuSerif-31"/>
       <use xlink:href="#DejaVuSerif-33" x="63.623047"/>
       <use xlink:href="#DejaVuSerif-2e" x="127.246094"/>
       <use xlink:href="#DejaVuSerif-33" x="159.033203"/>
       <use xlink:href="#DejaVuSerif-35" x="222.65625"/>
      </g>
     </g>
    </g>
    <g id="xtick_24">
     <g id="line2d_78">
      <g>
       <use xlink:href="#mc9b5478139" x="469.506352" y="163.503626" style="stroke: #000000"/>
      </g>
     </g>
     <g id="text_58">
      <!-- 13.40 -->
      <g transform="translate(459.486508 175.822532) scale(0.07 -0.07)">
       <use xlink:href="#DejaVuSerif-31"/>
       <use xlink:href="#DejaVuSerif-33" x="63.623047"/>
       <use xlink:href="#DejaVuSerif-2e" x="127.246094"/>
       <use xlink:href="#DejaVuSerif-34" x="159.033203"/>
       <use xlink:href="#DejaVuSerif-30" x="222.65625"/>
      </g>
     </g>
    </g>
    <g id="text_59">
     <!-- Time (days) -->
     <g transform="translate(422.749909 186.59722) scale(0.07 -0.07)">
      <use xlink:href="#DejaVuSerif-54"/>
      <use xlink:href="#DejaVuSerif-69" x="66.699219"/>
      <use xlink:href="#DejaVuSerif-6d" x="98.681641"/>
      <use xlink:href="#DejaVuSerif-65" x="193.505859"/>
      <use xlink:href="#DejaVuSerif-20" x="252.685547"/>
      <use xlink:href="#DejaVuSerif-28" x="284.472656"/>
      <use xlink:href="#DejaVuSerif-64" x="323.486328"/>
      <use xlink:href="#DejaVuSerif-61" x="387.5"/>
      <use xlink:href="#DejaVuSerif-79" x="447.119141"/>
      <use xlink:href="#DejaVuSerif-73" x="503.613281"/>
      <use xlink:href="#DejaVuSerif-29" x="554.931641"/>
     </g>
    </g>
   </g>
   <g id="matplotlib.axis_16">
    <g id="ytick_22">
     <g id="line2d_79">
      <g>
       <use xlink:href="#mc085848803" x="404.587512" y="163.503626" style="stroke: #000000"/>
      </g>
     </g>
     <g id="text_60">
      <!-- 60 -->
      <g transform="translate(388.680012 166.163079) scale(0.07 -0.07)">
       <use xlink:href="#DejaVuSerif-36"/>
       <use xlink:href="#DejaVuSerif-30" x="63.623047"/>
      </g>
     </g>
    </g>
    <g id="ytick_23">
     <g id="line2d_80">
      <g>
       <use xlink:href="#mc085848803" x="404.587512" y="131.232583" style="stroke: #000000"/>
      </g>
     </g>
     <g id="text_61">
      <!-- 80 -->
      <g transform="translate(388.680012 133.892036) scale(0.07 -0.07)">
       <use xlink:href="#DejaVuSerif-38"/>
       <use xlink:href="#DejaVuSerif-30" x="63.623047"/>
      </g>
     </g>
    </g>
    <g id="ytick_24">
     <g id="line2d_81">
      <g>
       <use xlink:href="#mc085848803" x="404.587512" y="98.96154" style="stroke: #000000"/>
      </g>
     </g>
     <g id="text_62">
      <!-- 100 -->
      <g transform="translate(384.226262 101.620993) scale(0.07 -0.07)">
       <use xlink:href="#DejaVuSerif-31"/>
       <use xlink:href="#DejaVuSerif-30" x="63.623047"/>
       <use xlink:href="#DejaVuSerif-30" x="127.246094"/>
      </g>
     </g>
    </g>
    <g id="text_63">
     <!-- $d_{\mathrm{RH}}$ (%) -->
     <g transform="translate(378.77048 144.742583) rotate(-90) scale(0.07 -0.07)">
      <use xlink:href="#DejaVuSerif-Italic-64" transform="translate(0 0.015625)"/>
      <use xlink:href="#DejaVuSerif-52" transform="translate(64.013672 -15.55625) scale(0.7)"/>
      <use xlink:href="#DejaVuSerif-48" transform="translate(116.71875 -15.55625) scale(0.7)"/>
      <use xlink:href="#DejaVuSerif-20" transform="translate(180.358984 0.015625)"/>
      <use xlink:href="#DejaVuSerif-28" transform="translate(212.146094 0.015625)"/>
      <use xlink:href="#DejaVuSerif-25" transform="translate(251.159766 0.015625)"/>
      <use xlink:href="#DejaVuSerif-29" transform="translate(346.179297 0.015625)"/>
     </g>
    </g>
   </g>
   <g id="line2d_82">
    <path d="M 408.128539 118.001455 
L 419.931965 119.292297 
L 431.73539 117.033324 
L 443.538816 116.549258 
L 455.342241 116.710613 
L 467.145666 117.8401 
L 478.949092 118.646876 
" clip-path="url(#pccd2ab093d)" style="fill: none; stroke: #7f7f7f; stroke-width: 2; stroke-linecap: square"/>
   </g>
   <g id="patch_25">
    <path d="M 404.587512 163.503626 
L 404.587512 98.96154 
" style="fill: none; stroke: #000000; stroke-width: 1.5; stroke-linejoin: miter; stroke-linecap: square"/>
   </g>
   <g id="patch_26">
    <path d="M 404.587512 163.503626 
L 482.49012 163.503626 
" style="fill: none; stroke: #000000; stroke-width: 1.5; stroke-linejoin: miter; stroke-linecap: square"/>
   </g>
  </g>
 </g>
 <defs>
  <clipPath id="pf504fa8d5b">
   <rect x="46.079688" y="9.859453" width="77.902608" height="64.542086"/>
  </clipPath>
  <clipPath id="p9e31c0ce26">
   <rect x="46.079688" y="98.96154" width="77.902608" height="64.542086"/>
  </clipPath>
  <clipPath id="p3cdec1dea1">
   <rect x="165.582296" y="9.859453" width="77.902608" height="64.542086"/>
  </clipPath>
  <clipPath id="pd162cde44b">
   <rect x="165.582296" y="98.96154" width="77.902608" height="64.542086"/>
  </clipPath>
  <clipPath id="pd7d4c2fdba">
   <rect x="285.084904" y="9.859453" width="77.902608" height="64.542086"/>
  </clipPath>
  <clipPath id="p8e12c97366">
   <rect x="285.084904" y="98.96154" width="77.902608" height="64.542086"/>
  </clipPath>
  <clipPath id="p2a34654307">
   <rect x="404.587512" y="9.859453" width="77.902608" height="64.542086"/>
  </clipPath>
  <clipPath id="pccd2ab093d">
   <rect x="404.587512" y="98.96154" width="77.902608" height="64.542086"/>
  </clipPath>
 </defs>
</svg>
