<?xml version="1.0" encoding="UTF-8"?>
<svg id="Layer_2" data-name="Layer 2" xmlns="http://www.w3.org/2000/svg" viewBox="0 0 248.85 128.41">
  <defs>
    <style>
      .cls-1, .cls-2, .cls-3, .cls-4, .cls-5, .cls-6, .cls-7, .cls-8, .cls-9, .cls-10, .cls-11, .cls-12, .cls-13, .cls-14 {
        stroke-miterlimit: 10;
      }

      .cls-1, .cls-4, .cls-12, .cls-13, .cls-14 {
        stroke: #2b3990;
      }

      .cls-1, .cls-5, .cls-10, .cls-15 {
        fill: #fff;
      }

      .cls-1, .cls-10 {
        stroke-width: .25px;
      }

      .cls-16, .cls-17, .cls-18, .cls-19, .cls-20, .cls-21, .cls-11 {
        fill: #231f20;
      }

      .cls-16, .cls-19, .cls-15 {
        font-family: TimesNewRomanPS-ItalicMT, 'Times New Roman';
        font-style: italic;
      }

      .cls-16, .cls-20 {
        font-size: 6.78px;
      }

      .cls-17, .cls-19, .cls-15 {
        font-size: 8.43px;
      }

      .cls-17, .cls-20 {
        font-family: TimesNewRomanPSMT, 'Times New Roman';
      }

      .cls-2, .cls-3, .cls-4, .cls-6, .cls-7, .cls-11, .cls-13, .cls-14 {
        stroke-width: .75px;
      }

      .cls-2, .cls-4 {
        opacity: .4;
      }

      .cls-2, .cls-4, .cls-6, .cls-8, .cls-9, .cls-12, .cls-14 {
        fill: none;
      }

      .cls-2, .cls-8, .cls-10 {
        stroke: #be1e2d;
      }

      .cls-22 {
        fill: #f1f2f2;
      }

      .cls-3 {
        fill: #be1e2d;
      }

      .cls-3, .cls-7 {
        stroke: #fff;
      }

      .cls-23 {
        opacity: .1;
      }

      .cls-23, .cls-24, .cls-13 {
        fill: #2b3990;
      }

      .cls-25 {
        fill: #578b3e;
      }

      .cls-5, .cls-9 {
        stroke: #231f20;
      }

      .cls-6, .cls-11 {
        stroke: #00a651;
      }

      .cls-7 {
        fill: #1c75bc;
      }

      .cls-26 {
        fill: #679f42;
      }

      .cls-27 {
        fill: #dcecc8;
      }

      .cls-28 {
        fill: #00a651;
      }

      .cls-21 {
        font-family: TimesNewRomanPS-BoldMT, 'Times New Roman';
        font-size: 8.09px;
        font-weight: 700;
      }

      .cls-9 {
        stroke-width: .5px;
      }

      .cls-13 {
        opacity: .3;
      }

      .cls-29 {
        fill: #8cc34a;
      }
    </style>
  </defs>
  <g id="Layer_2-2" data-name="Layer 2">
    <path class="cls-22" d="M190.54,77.23h-81.89c-4.24,0-7.69-3.44-7.69-7.69V14.99c0-.51.05-3.23,2.25-5.43,1.39-1.39,3.31-2.25,5.43-2.25h81.89c4.24,0,7.69,3.44,7.69,7.69v54.55c0,4.24-3.44,7.69-7.69,7.69Z"/>
    <text class="cls-20" transform="translate(103.96 72.94)"><tspan x="0" y="0">Controller model</tspan></text>
    <path class="cls-8" d="M100.13,43.19c1.9.17,4.73.4,8.16.6,9.34.55,14.02.77,17.4-.03,8.82-2.09,7.8-7.46,15.84-9.14,7-1.46,8.31,2.49,17.75,1.51,7.86-.82,8.34-3.71,13.45-2.8,5.27.94,6.45,4.31,13.99,7.42,3.81,1.57,7.2,2.23,9.47,2.54"/>
    <path class="cls-4" d="M100.43,41.66c5.16,4.49,13.19,10.15,24.04,12.62,10.01,2.28,15.32.21,25.59,1.6,6.98.94,12.07,2.99,14.07,3.7,8.88,3.16,15.63,7.24,20.13,10.39"/>
    <path class="cls-4" d="M100.13,43.19c16.56-2.4,27.25-7.95,34.1-12.85,5.73-4.1,12.51-10.39,20.23-8.82,3.59.73,4.95,2.67,10.73,3.46,3.32.46,5.14.13,11.48-.08,4.58-.15,8.28-.13,10.61-.1"/>
    <path class="cls-2" d="M100.96,42.96c16.07-5.38,26.41-12.31,33.02-17.85,5.36-4.5,11.96-11.21,19.67-9.99,3.85.61,5.52,2.81,10.92,2.82,4.09.01,5.8-1.25,11.31-2.18,4.52-.76,8.28-.75,10.64-.63"/>
    <path class="cls-2" d="M100.71,43.11c11.5,6.05,20.77,7.12,27.27,6.89,8.26-.29,13.15-2.7,24.35-1.45,6.24.7,11.01,2.18,14.19,3.18,9.06,2.86,16.04,6.69,20.75,9.69"/>
    <path class="cls-12" d="M193.17,52.06c-.7-.2-1.77-.51-3.07-.88-2.68-.76-3.57-.99-4.14-1.16-3.43-1-6.1-2.71-7.18-3.4-4.64-2.97-4.33-4.66-6.9-5.12-2.58-.46-3.41,1.14-7.01,1.54-2.27.25-3.11-.25-8.47-1.63-8.15-2.09-12.27-3.1-14.53-1.72-1.04.64-2.04,1.56-4.8,3.37-.73.48-1.62.99-2.75,1.51-2.36,1.09-4.46,1.63-5.9,1.92-2.31-.06-4.68-.16-7.09-.31-7.35-.45-14.24-1.3-20.63-2.39"/>
    <circle class="cls-7" cx="99.52" cy="43.2" r="4.78"/>
    <g>
      <line class="cls-9" x1="180.63" y1="47.08" x2="180.63" y2="40.47"/>
      <path class="cls-18" d="M180.63,37.45c.53,1.42,1.43,3.18,2.38,4.27l-2.38-.86-2.38.86c.95-1.09,1.85-2.85,2.38-4.27Z"/>
    </g>
    <text class="cls-15" transform="translate(96.5 44.6)"><tspan x="0" y="0">x</tspan></text>
    <text class="cls-15" transform="translate(100.24 46.05) scale(.58)"><tspan x="0" y="0">0</tspan></text>
    <circle class="cls-10" cx="186.52" cy="15.13" r="1.12"/>
    <circle class="cls-10" cx="187.28" cy="61.42" r="1.12"/>
    <text class="cls-16" transform="translate(182.71 46.87)"><tspan x="0" y="0">θ</tspan></text>
    <ellipse class="cls-23" cx="194.3" cy="48.94" rx="7.3" ry="3.36" transform="translate(75.29 210.14) rotate(-67.7)"/>
    <rect class="cls-13" x="200.03" y="5.62" width="35.03" height="21.81" rx="2.83" ry="2.83"/>
    <g>
      <circle class="cls-3" cx="198.22" cy="43.11" r="4.78"/>
      <text class="cls-15" transform="translate(194.97 44.76)"><tspan x="0" y="0">x</tspan></text>
      <text class="cls-15" transform="translate(198.71 46.21) scale(.58)"><tspan x="0" y="0">N</tspan></text>
    </g>
    <text class="cls-19" transform="translate(207.72 18.25)"><tspan x="0" y="0">V</tspan></text>
    <text class="cls-19" transform="translate(212.87 18.53) scale(.58)"><tspan x="0" y="0">φ</tspan></text>
    <text class="cls-19" transform="translate(215.59 18.25)"><tspan x="0" y="0">(x</tspan></text>
    <text class="cls-19" transform="translate(222.14 19.71) scale(.58)"><tspan x="0" y="0">N</tspan></text>
    <text class="cls-19" transform="translate(225.42 18.25)"><tspan x="0" y="0">)</tspan></text>
    <line class="cls-9" x1="201.16" y1="38.86" x2="207.73" y2="27.58"/>
    <text class="cls-19" transform="translate(220.49 45.12)"><tspan x="0" y="0">u</tspan></text>
    <text class="cls-19" transform="translate(224.7 46.57) scale(.58)"><tspan x="0" y="0">k</tspan></text>
    <line class="cls-11" x1="204.28" y1="42.94" x2="218.45" y2="42.94"/>
    <rect class="cls-22" x="96.5" y="94.35" width="26.2" height="24.39" rx="5.67" ry="5.67"/>
    <g>
      <path class="cls-14" d="M90.22,47.02h-14.19v33.9h33.24v13.26"/>
      <path class="cls-24" d="M94.75,47.02c-2.13-.79-4.77-2.14-6.41-3.57l1.29,3.57-1.29,3.57c1.64-1.43,4.28-2.78,6.41-3.57Z"/>
    </g>
    <text class="cls-19" transform="translate(104.3 108.23)"><tspan x="0" y="0">π</tspan></text>
    <text class="cls-17" transform="translate(108.52 109.35) scale(.58)"><tspan x="0" y="0">RL</tspan></text>
    <text class="cls-17" transform="translate(114.8 108.23)"><tspan x="0" y="0"> </tspan></text>
    <text class="cls-19" transform="translate(87.45 86.14)"><tspan x="0" y="0">τ</tspan></text>
    <text class="cls-17" transform="translate(90.46 87.26) scale(.58)"><tspan x="0" y="0">RL</tspan></text>
    <path class="cls-14" d="M31.59,42.68h13.02"/>
    <g>
      <path class="cls-6" d="M229.18,43.11h19.3v84.93H16.25V63.02"/>
      <path class="cls-28" d="M16.25,58.5c.79,2.13,2.14,4.77,3.57,6.41l-3.57-1.29-3.57,1.29c1.43-1.64,2.78-4.28,3.57-6.41Z"/>
    </g>
    <text class="cls-21" transform="translate(110.69 6.73)"><tspan x="0" y="0">RL-SMPC</tspan></text>
    <g>
      <line class="cls-9" x1="180.63" y1="24.75" x2="180.63" y2="18.14"/>
      <path class="cls-18" d="M180.63,15.12c.53,1.42,1.43,3.18,2.38,4.27l-2.38-.86-2.38.86c.95-1.09,1.85-2.85,2.38-4.27Z"/>
    </g>
    <g>
      <line class="cls-9" x1="180.63" y1="67.36" x2="180.63" y2="60.75"/>
      <path class="cls-18" d="M180.63,57.73c.53,1.42,1.43,3.18,2.38,4.27l-2.38-.86-2.38.86c.95-1.09,1.85-2.85,2.38-4.27Z"/>
    </g>
    <text class="cls-19" transform="translate(45.57 44.02)"><tspan x="0" y="0">o</tspan></text>
    <text class="cls-19" transform="translate(49.78 46.16) scale(.58)"><tspan x="0" y="0">k</tspan></text>
    <g>
      <path class="cls-14" d="M91.97,106.54h-26.3V39.28h24.55"/>
      <path class="cls-24" d="M96.5,106.54c-2.13-.79-4.77-2.14-6.41-3.57l1.29,3.57-1.29,3.57c1.64-1.43,4.28-2.78,6.41-3.57Z"/>
      <path class="cls-24" d="M94.75,39.28c-2.13.79-4.77,2.14-6.41,3.57l1.29-3.57-1.29-3.57c1.64,1.43,4.28,2.78,6.41,3.57Z"/>
    </g>
    <line class="cls-14" x1="52.15" y1="42.68" x2="66.03" y2="42.68"/>
    <circle class="cls-1" cx="184.26" cy="70.02" r="1.12"/>
    <circle class="cls-1" cx="193.17" cy="52.06" r="1.12"/>
    <circle class="cls-1" cx="187.28" cy="24.75" r="1.12"/>
    <ellipse class="cls-23" cx="186.15" cy="66.07" rx="7.3" ry="3.36" transform="translate(54.39 213.23) rotate(-67.7)"/>
    <ellipse class="cls-23" cx="187.03" cy="19.98" rx="3.36" ry="7.3"/>
  </g>
  <g id="Layer_3" data-name="Layer 3">
    <g id="GH">
      <g id="Greenhouse">
        <polygon class="cls-5" points="31.78 38.27 24.03 32.89 16.27 27.52 8.52 32.89 .77 38.27 .5 38.27 .5 58.87 32.05 58.87 32.05 38.27 31.78 38.27"/>
      </g>
      <g id="letucce3">
        <path class="cls-26" d="M6.71,48.98c-.77-.02-.57-.66-1.1-.66s-.33.64-1.1.66c-.64.02-.88,1.1-.88,1.1l1.97,5.04,1.97-5.04s-.24-1.07-.88-1.1h0Z"/>
        <path class="cls-29" d="M4.74,57.3c-.09-.5.24-.94-.2-1.2-.22-.13-.48-.18-.68-.33-.33-.22-.24-.81-.33-1.2-.02-.07-.04-.15-.09-.2-.09-.11-.48-.28-.61-.33-.26-.04-.44-.24-.5-.46-.07-.24.02-.5,0-.74,0-.31.09-.39-.13-.61-.15-.13-.33-.22-.44-.39-.2-.31-.07-.88.26-1.05.18-.09.39-.11.53-.5.11-.35.11-.46.22-.81.09-.28.37-.48.66-.5s.57.15.66.44c.13.39.07.37.22.66.18.33.85.42.88,1.1,0,.24-.33.59-.24.79.04.09.13.15.22.24.22.22.33.55.28.85-.02.18-.11.35-.13.55-.02.39.28.7.53,1.03.57.77.22,1.36.22,2.67,0,.02-1.31.02-1.31.02h0Z"/>
        <path class="cls-29" d="M6.06,57.3c.09-.5.2-.94.64-1.2.22-.13.48-.18.68-.33.33-.22.24-.81.33-1.2.02-.07.04-.15.09-.2.09-.11.48-.28.61-.33.22-.07.42-.24.48-.46.07-.24-.02-.5,0-.74,0-.31-.09-.39.13-.61.15-.13.33-.22.44-.39.2-.31.07-.88-.26-1.05-.18-.09-.39-.22-.53-.5-.15-.33-.11-.46-.22-.81-.09-.28-.37-.48-.66-.5s-.57.15-.66.44c-.13.39-.07.37-.22.66-.18.33-.85.42-.88,1.1,0,.24.33.59.24.79-.04.09-.13.15-.22.24-.22.22-.33.55-.28.85.02.18.11.35.13.55.02.39-.28.7-.53,1.03-.57.77-.66,1.36-.66,2.67.02.02,1.34.02,1.34.02h0Z"/>
        <path class="cls-25" d="M6.71,48.98c-.61-.02-.61-.44-.85-.59.2,1.01.83.92.79,1.25-.02.09-.02.13-.09.24-.02.02-.13.11-.2.15-.26.18-.7.48-.72,1.14h0c-.02-.66-.46-.94-.72-1.14-.07-.04-.18-.11-.2-.15-.07-.11-.09-.13-.09-.24-.02-.35.55-.24.79-1.25-.28.15-.28.57-.9.59-.22,0-.37.13-.5.28.02.04.04.11.07.15.13.39.07.37.22.66.18.33.85.42.88,1.1,0,.24-.33.59-.24.79.04.09.13.15.22.24.22.22.33.55.28.85-.02.18-.11.35-.13.55,0,.13.02.24.07.35-.74.77-.64,2.34-.61,2.45.04-.74.22-1.2.64-1.77.07-.09.15-.18.22-.28.18-.22.33-.46.31-.74,0-.2-.09-.37-.13-.55-.04-.31.04-.64.28-.85.07-.07.18-.13.22-.24.09-.22-.24-.57-.24-.79.02-.68.7-.77.88-1.1.15-.28.09-.28.22-.66.02-.04.04-.11.07-.15-.13-.15-.28-.28-.5-.28ZM5.77,51.89c-.07.07-.11.11-.15.18-.04-.07-.11-.13-.15-.18l-.07-.07s.04-.07.04-.11c.09-.15.18-.33.18-.53,0,.2.09.37.18.53.02.02.04.07.04.11l-.07.07h0Z"/>
        <path class="cls-27" d="M4.77,55.51s-.04-.07-.07-.11c-.09-.18-.2-.35-.31-.53s-.22-.37-.33-.57-.22-.39-.31-.59c-.09-.2-.2-.39-.26-.59-.09-.2-.13-.39-.18-.57-.04-.18-.07-.37-.09-.53-.02-.18-.02-.33-.02-.46-.02-.13.02-.24.02-.35.02-.2.02-.31.02-.31,0,0,0,.11.02.31,0,.09,0,.22.02.33.02.13.04.28.09.44s.09.33.15.5c.07.18.13.35.24.53.09.18.2.35.31.53s.24.35.37.53c.13.18.26.35.39.5.04.04.07.09.11.13-.02.09-.07.2-.09.28v.09s-.02.11-.02.15c0,.07-.02.13-.02.2-.04.02-.04.07-.07.09h0ZM5.84,57.3s0-.11-.02-.31c-.02-.11,0-.18.02-.28,0-.09.02-.22.07-.37.02-.07.04-.15.07-.22.02-.07.04-.15.09-.24.07-.15.15-.33.24-.5s.2-.35.31-.53c.11-.18.22-.37.33-.57s.22-.39.31-.59c.09-.2.2-.39.26-.59.09-.2.13-.39.18-.57.04-.18.07-.37.09-.53.02-.18.02-.31.02-.46.02-.13-.02-.24-.02-.35-.02-.2-.02-.31-.02-.31,0,0,0,.11-.02.31,0,.09,0,.22-.02.33-.02.13-.04.28-.09.44s-.09.33-.15.5c-.07.18-.13.35-.24.53-.09.18-.2.35-.31.53-.11.18-.24.35-.37.53s-.26.35-.39.5c-.13.18-.26.33-.39.5-.13.18-.24.35-.33.53l-.13.26c-.04.09-.09.18-.11.26-.07.18-.13.33-.15.48-.04.15-.07.31-.07.39v.33h.88Z"/>
      </g>
      <g id="letucce2">
        <path class="cls-26" d="M17.56,48.98c-.77-.02-.57-.66-1.1-.66s-.33.64-1.1.66c-.64.02-.88,1.1-.88,1.1l1.97,5.04,1.97-5.04s-.24-1.07-.88-1.1h0Z"/>
        <path class="cls-29" d="M15.59,57.3c-.09-.5.24-.94-.2-1.2-.22-.13-.48-.18-.68-.33-.33-.22-.24-.81-.33-1.2-.02-.07-.04-.15-.09-.2-.09-.11-.48-.28-.61-.33-.26-.04-.44-.24-.5-.46-.07-.24.02-.5,0-.74,0-.31.09-.39-.13-.61-.15-.13-.33-.22-.44-.39-.2-.31-.07-.88.26-1.05.18-.09.39-.11.53-.5.11-.35.11-.46.22-.81.09-.28.37-.48.66-.5s.57.15.66.44c.13.39.07.37.22.66.18.33.85.42.88,1.1,0,.24-.33.59-.24.79.04.09.13.15.22.24.22.22.33.55.28.85-.02.18-.11.35-.13.55-.02.39.28.7.53,1.03.57.77.22,1.36.22,2.67,0,.02-1.31.02-1.31.02h0Z"/>
        <path class="cls-29" d="M16.9,57.3c.09-.5.2-.94.64-1.2.22-.13.48-.18.68-.33.33-.22.24-.81.33-1.2.02-.07.04-.15.09-.2.09-.11.48-.28.61-.33.22-.07.42-.24.48-.46.07-.24-.02-.5,0-.74,0-.31-.09-.39.13-.61.15-.13.33-.22.44-.39.2-.31.07-.88-.26-1.05-.18-.09-.39-.22-.53-.5-.15-.33-.11-.46-.22-.81-.09-.28-.37-.48-.66-.5s-.57.15-.66.44c-.13.39-.07.37-.22.66-.18.33-.85.42-.88,1.1,0,.24.33.59.24.79-.04.09-.13.15-.22.24-.22.22-.33.55-.28.85.02.18.11.35.13.55.02.39-.28.7-.53,1.03-.57.77-.66,1.36-.66,2.67.02.02,1.34.02,1.34.02h0Z"/>
        <path class="cls-25" d="M17.56,48.98c-.61-.02-.61-.44-.85-.59.2,1.01.83.92.79,1.25-.02.09-.02.13-.09.24-.02.02-.13.11-.2.15-.26.18-.7.48-.72,1.14h0c-.02-.66-.46-.94-.72-1.14-.07-.04-.18-.11-.2-.15-.07-.11-.09-.13-.09-.24-.02-.35.55-.24.79-1.25-.28.15-.28.57-.9.59-.22,0-.37.13-.5.28.02.04.04.11.07.15.13.39.07.37.22.66.18.33.85.42.88,1.1,0,.24-.33.59-.24.79.04.09.13.15.22.24.22.22.33.55.28.85-.02.18-.11.35-.13.55,0,.13.02.24.07.35-.74.77-.64,2.34-.61,2.45.04-.74.22-1.2.64-1.77.07-.09.15-.18.22-.28.18-.22.33-.46.31-.74,0-.2-.09-.37-.13-.55-.04-.31.04-.64.28-.85.07-.07.18-.13.22-.24.09-.22-.24-.57-.24-.79.02-.68.7-.77.88-1.1.15-.28.09-.28.22-.66.02-.04.04-.11.07-.15-.13-.15-.28-.28-.5-.28ZM16.62,51.89c-.07.07-.11.11-.15.18-.04-.07-.11-.13-.15-.18l-.07-.07s.04-.07.04-.11c.09-.15.18-.33.18-.53,0,.2.09.37.18.53.02.02.04.07.04.11l-.07.07h0Z"/>
        <path class="cls-27" d="M15.61,55.51s-.04-.07-.07-.11c-.09-.18-.2-.35-.31-.53s-.22-.37-.33-.57-.22-.39-.31-.59c-.09-.2-.2-.39-.26-.59-.09-.2-.13-.39-.18-.57-.04-.18-.07-.37-.09-.53-.02-.18-.02-.33-.02-.46-.02-.13.02-.24.02-.35.02-.2.02-.31.02-.31,0,0,0,.11.02.31,0,.09,0,.22.02.33.02.13.04.28.09.44s.09.33.15.5c.07.18.13.35.24.53.09.18.2.35.31.53s.24.35.37.53c.13.18.26.35.39.5.04.04.07.09.11.13-.02.09-.07.2-.09.28v.09s-.02.11-.02.15c0,.07-.02.13-.02.2-.04.02-.04.07-.07.09h0ZM16.69,57.3s0-.11-.02-.31c-.02-.11,0-.18.02-.28,0-.09.02-.22.07-.37.02-.07.04-.15.07-.22.02-.07.04-.15.09-.24.07-.15.15-.33.24-.5s.2-.35.31-.53c.11-.18.22-.37.33-.57s.22-.39.31-.59c.09-.2.2-.39.26-.59.09-.2.13-.39.18-.57.04-.18.07-.37.09-.53.02-.18.02-.31.02-.46.02-.13-.02-.24-.02-.35-.02-.2-.02-.31-.02-.31,0,0,0,.11-.02.31,0,.09,0,.22-.02.33-.02.13-.04.28-.09.44s-.09.33-.15.5c-.07.18-.13.35-.24.53-.09.18-.2.35-.31.53-.11.18-.24.35-.37.53s-.26.35-.39.5c-.13.18-.26.33-.39.5-.13.18-.24.35-.33.53l-.13.26c-.04.09-.09.18-.11.26-.07.18-.13.33-.15.48-.04.15-.07.31-.07.39v.33h.88Z"/>
      </g>
      <g id="letucce1">
        <path class="cls-26" d="M27.52,48.98c-.77-.02-.57-.66-1.1-.66s-.33.64-1.1.66c-.64.02-.88,1.1-.88,1.1l1.97,5.04,1.97-5.04s-.24-1.07-.88-1.1h0Z"/>
        <path class="cls-29" d="M25.55,57.3c-.09-.5.24-.94-.2-1.2-.22-.13-.48-.18-.68-.33-.33-.22-.24-.81-.33-1.2-.02-.07-.04-.15-.09-.2-.09-.11-.48-.28-.61-.33-.26-.04-.44-.24-.5-.46-.07-.24.02-.5,0-.74,0-.31.09-.39-.13-.61-.15-.13-.33-.22-.44-.39-.2-.31-.07-.88.26-1.05.18-.09.39-.11.53-.5.11-.35.11-.46.22-.81.09-.28.37-.48.66-.5s.57.15.66.44c.13.39.07.37.22.66.18.33.85.42.88,1.1,0,.24-.33.59-.24.79.04.09.13.15.22.24.22.22.33.55.28.85-.02.18-.11.35-.13.55-.02.39.28.7.53,1.03.57.77.22,1.36.22,2.67,0,.02-1.31.02-1.31.02h0Z"/>
        <path class="cls-29" d="M26.86,57.3c.09-.5.2-.94.64-1.2.22-.13.48-.18.68-.33.33-.22.24-.81.33-1.2.02-.07.04-.15.09-.2.09-.11.48-.28.61-.33.22-.07.42-.24.48-.46.07-.24-.02-.5,0-.74,0-.31-.09-.39.13-.61.15-.13.33-.22.44-.39.2-.31.07-.88-.26-1.05-.18-.09-.39-.22-.53-.5-.15-.33-.11-.46-.22-.81-.09-.28-.37-.48-.66-.5s-.57.15-.66.44c-.13.39-.07.37-.22.66-.18.33-.85.42-.88,1.1,0,.24.33.59.24.79-.04.09-.13.15-.22.24-.22.22-.33.55-.28.85.02.18.11.35.13.55.02.39-.28.7-.53,1.03-.57.77-.66,1.36-.66,2.67.02.02,1.34.02,1.34.02h0Z"/>
        <path class="cls-25" d="M27.52,48.98c-.61-.02-.61-.44-.85-.59.2,1.01.83.92.79,1.25-.02.09-.02.13-.09.24-.02.02-.13.11-.2.15-.26.18-.7.48-.72,1.14h0c-.02-.66-.46-.94-.72-1.14-.07-.04-.18-.11-.2-.15-.07-.11-.09-.13-.09-.24-.02-.35.55-.24.79-1.25-.28.15-.28.57-.9.59-.22,0-.37.13-.5.28.02.04.04.11.07.15.13.39.07.37.22.66.18.33.85.42.88,1.1,0,.24-.33.59-.24.79.04.09.13.15.22.24.22.22.33.55.28.85-.02.18-.11.35-.13.55,0,.13.02.24.07.35-.74.77-.64,2.34-.61,2.45.04-.74.22-1.2.64-1.77.07-.09.15-.18.22-.28.18-.22.33-.46.31-.74,0-.2-.09-.37-.13-.55-.04-.31.04-.64.28-.85.07-.07.18-.13.22-.24.09-.22-.24-.57-.24-.79.02-.68.7-.77.88-1.1.15-.28.09-.28.22-.66.02-.04.04-.11.07-.15-.13-.15-.28-.28-.5-.28ZM26.58,51.89c-.07.07-.11.11-.15.18-.04-.07-.11-.13-.15-.18l-.07-.07s.04-.07.04-.11c.09-.15.18-.33.18-.53,0,.2.09.37.18.53.02.02.04.07.04.11l-.07.07h0Z"/>
        <path class="cls-27" d="M25.57,55.51s-.04-.07-.07-.11c-.09-.18-.2-.35-.31-.53s-.22-.37-.33-.57-.22-.39-.31-.59c-.09-.2-.2-.39-.26-.59-.09-.2-.13-.39-.18-.57-.04-.18-.07-.37-.09-.53-.02-.18-.02-.33-.02-.46-.02-.13.02-.24.02-.35.02-.2.02-.31.02-.31,0,0,0,.11.02.31,0,.09,0,.22.02.33.02.13.04.28.09.44s.09.33.15.5c.07.18.13.35.24.53.09.18.2.35.31.53s.24.35.37.53c.13.18.26.35.39.5.04.04.07.09.11.13-.02.09-.07.2-.09.28v.09s-.02.11-.02.15c0,.07-.02.13-.02.2-.04.02-.04.07-.07.09h0ZM26.64,57.3s0-.11-.02-.31c-.02-.11,0-.18.02-.28,0-.09.02-.22.07-.37.02-.07.04-.15.07-.22.02-.07.04-.15.09-.24.07-.15.15-.33.24-.5s.2-.35.31-.53c.11-.18.22-.37.33-.57s.22-.39.31-.59c.09-.2.2-.39.26-.59.09-.2.13-.39.18-.57.04-.18.07-.37.09-.53.02-.18.02-.31.02-.46.02-.13-.02-.24-.02-.35-.02-.2-.02-.31-.02-.31,0,0,0,.11-.02.31,0,.09,0,.22-.02.33-.02.13-.04.28-.09.44s-.09.33-.15.5c-.07.18-.13.35-.24.53-.09.18-.2.35-.31.53-.11.18-.24.35-.37.53s-.26.35-.39.5c-.13.18-.26.33-.39.5-.13.18-.24.35-.33.53l-.13.26c-.04.09-.09.18-.11.26-.07.18-.13.33-.15.48-.04.15-.07.31-.07.39v.33h.88Z"/>
      </g>
    </g>
  </g>
</svg>