<?xml version="1.0" encoding="UTF-8"?>
<svg id="Layer_2" data-name="Layer 2" xmlns="http://www.w3.org/2000/svg" viewBox="0 0 248.53 148.18">
  <defs>
    <style>
      .cls-1, .cls-2, .cls-3, .cls-4, .cls-5, .cls-6, .cls-7, .cls-8, .cls-9, .cls-10, .cls-11, .cls-12, .cls-13, .cls-14, .cls-15, .cls-16, .cls-17, .cls-18, .cls-19, .cls-20, .cls-21, .cls-22, .cls-23 {
        stroke-miterlimit: 10;
      }

      .cls-1, .cls-5, .cls-14, .cls-18, .cls-20, .cls-22 {
        stroke: #2b3990;
      }

      .cls-1, .cls-8, .cls-24, .cls-23 {
        fill: #fff;
      }

      .cls-1, .cls-10, .cls-13, .cls-14, .cls-15, .cls-17, .cls-23 {
        stroke-width: .5px;
      }

      .cls-25, .cls-3, .cls-26, .cls-27, .cls-6, .cls-28, .cls-29, .cls-30, .cls-31, .cls-32, .cls-33, .cls-21, .cls-34 {
        fill: #231f20;
      }

      .cls-25, .cls-28, .cls-24 {
        font-size: 8.43px;
      }

      .cls-25, .cls-29, .cls-31, .cls-35, .cls-33, .cls-36, .cls-34 {
        font-family: TimesNewRomanPSMT, 'Times New Roman';
      }

      .cls-2, .cls-3, .cls-4, .cls-5, .cls-6, .cls-7, .cls-11, .cls-12, .cls-19, .cls-21, .cls-22 {
        stroke-width: .75px;
      }

      .cls-2, .cls-5, .cls-7, .cls-9, .cls-11, .cls-13, .cls-16, .cls-17, .cls-18, .cls-19, .cls-20, .cls-22 {
        fill: none;
      }

      .cls-2, .cls-5, .cls-9, .cls-18 {
        opacity: .4;
      }

      .cls-2, .cls-9, .cls-16, .cls-23 {
        stroke: #be1e2d;
      }

      .cls-3, .cls-7 {
        stroke: #939598;
      }

      .cls-26 {
        font-family: TimesNewRomanPS-BoldItalicMT, 'Times New Roman';
      }

      .cls-26, .cls-28, .cls-32, .cls-24 {
        font-style: italic;
      }

      .cls-26, .cls-30 {
        font-weight: 700;
      }

      .cls-26, .cls-31, .cls-32 {
        font-size: 8px;
      }

      .cls-4, .cls-12 {
        stroke: #fff;
      }

      .cls-4, .cls-36 {
        fill: #be1e2d;
      }

      .cls-6, .cls-8, .cls-13, .cls-17, .cls-19 {
        stroke: #231f20;
      }

      .cls-6, .cls-13, .cls-37 {
        opacity: .7;
      }

      .cls-38 {
        fill: #578b3e;
      }

      .cls-39 {
        letter-spacing: -.08em;
      }

      .cls-10 {
        fill: rgba(194, 193, 224, .6);
        stroke: #c2c1e0;
      }

      .cls-28, .cls-32, .cls-24 {
        font-family: TimesNewRomanPS-ItalicMT, 'Times New Roman';
      }

      .cls-11, .cls-21 {
        stroke: #00a651;
      }

      .cls-12 {
        fill: #1c75bc;
      }

      .cls-40 {
        fill: #679f42;
      }

      .cls-13 {
        stroke-dasharray: 4 2;
      }

      .cls-41, .cls-21 {
        opacity: .8;
      }

      .cls-42 {
        fill: #dcecc8;
      }

      .cls-29 {
        font-size: 6.03px;
      }

      .cls-43 {
        fill: #939598;
      }

      .cls-44 {
        fill: #00a651;
      }

      .cls-45 {
        fill: #2b3990;
      }

      .cls-14 {
        fill: rgba(43, 57, 144, .4);
      }

      .cls-30 {
        font-family: TimesNewRomanPS-BoldMT, 'Times New Roman';
        font-size: 8.09px;
      }

      .cls-35 {
        fill: #2e3192;
      }

      .cls-35, .cls-36 {
        font-size: 6px;
        opacity: .6;
      }

      .cls-15 {
        fill: #f1f2f2;
        stroke: #808285;
      }

      .cls-33 {
        font-size: 7px;
      }

      .cls-46 {
        letter-spacing: -.04em;
      }

      .cls-34 {
        font-size: 7.26px;
      }

      .cls-47 {
        fill: #8cc34a;
      }
    </style>
  </defs>
  <g id="Layer_2-2" data-name="Layer 2">
    <line class="cls-13" x1="212.56" y1="74.87" x2="230.84" y2="38.32"/>
    <g>
      <rect class="cls-14" x="42.49" y="32.43" width="26.2" height="21" rx="5.67" ry="5.67"/>
      <text class="cls-32" transform="translate(49.84 44.36) scale(1.16 1)"><tspan x="0" y="0">π</tspan></text>
      <text class="cls-31" transform="translate(54.5 45.57) scale(.68 .58)"><tspan x="0" y="0">RL</tspan></text>
      <text class="cls-34" transform="translate(61.42 44.36) scale(1.16 1)"><tspan x="0" y="0"> </tspan></text>
    </g>
    <g class="cls-41">
      <g>
        <path class="cls-11" d="M238.16,79.44h9.52v68.36H18.84v-39.32"/>
        <path class="cls-44" d="M18.84,103.96c.79,2.13,2.14,4.77,3.57,6.41l-3.57-1.29-3.57,1.29c1.43-1.64,2.78-4.28,3.57-6.41Z"/>
      </g>
    </g>
    <g>
      <rect class="cls-15" x=".25" y=".25" width="37.86" height="21" rx="5.67" ry="5.67"/>
      <text class="cls-29" transform="translate(9.39 12.76)"><tspan class="cls-39" x="0" y="0">W</tspan><tspan x="5.21" y="0">eather</tspan></text>
    </g>
    <line class="cls-3" x1="19.71" y1="21.25" x2="19.71" y2="38.98"/>
    <g>
      <line class="cls-7" x1="19.71" y1="48.49" x2="19.71" y2="62.28"/>
      <path class="cls-43" d="M19.71,66.81c-.79-2.13-2.14-4.77-3.57-6.41l3.57,1.29,3.57-1.29c-1.43,1.64-2.78,4.28-3.57,6.41Z"/>
    </g>
    <g>
      <line class="cls-7" x1="56.07" y1="27.78" x2="56.07" y2="16.19"/>
      <path class="cls-43" d="M56.07,32.31c.79-2.13,2.14-4.77,3.57-6.41l-3.57,1.29-3.57-1.29c1.43,1.64,2.78,4.28,3.57,6.41Z"/>
    </g>
    <line class="cls-7" x1="38.11" y1="10.75" x2="50.3" y2="10.75"/>
    <line class="cls-6" x1="38.41" y1="90.43" x2="46.26" y2="90.43"/>
    <g class="cls-37">
      <g>
        <line class="cls-19" x1="56.07" y1="90.65" x2="82.95" y2="90.65"/>
        <path class="cls-27" d="M87.48,90.65c-2.13.79-4.77,2.14-6.41,3.57l1.29-3.57-1.29-3.57c1.64,1.43,4.28,2.78,6.41,3.57Z"/>
      </g>
    </g>
    <g class="cls-37">
      <g>
        <line class="cls-19" x1="50.84" y1="86.36" x2="50.84" y2="58.08"/>
        <path class="cls-27" d="M50.84,53.55c.79,2.13,2.14,4.77,3.57,6.41l-3.57-1.29-3.57,1.29c1.43-1.64,2.78-4.28,3.57-6.41Z"/>
      </g>
    </g>
    <g>
      <path class="cls-7" d="M82.95,67.09h-7.24V10.75h-15.02"/>
      <path class="cls-43" d="M87.48,67.09c-2.13-.79-4.77-2.14-6.41-3.57l1.29,3.57-1.29,3.57c1.64-1.43,4.28-2.78,6.41-3.57Z"/>
    </g>
    <g>
      <line class="cls-22" x1="67.83" y1="78.54" x2="80.93" y2="78.54"/>
      <path class="cls-45" d="M85.45,78.54c-2.13.79-4.77,2.14-6.41,3.57l1.29-3.57-1.29-3.57c1.64,1.43,4.28,2.78,6.41,3.57Z"/>
    </g>
    <line class="cls-22" x1="59.79" y1="53.55" x2="59.79" y2="72.68"/>
    <text class="cls-30" transform="translate(134.12 6.98)"><tspan x="0" y="0">RL-SMPC</tspan></text>
    <g>
      <path class="cls-15" d="M200.04,116.41h-102.32c-5.3,0-9.6-3.87-9.6-8.64v-61.34c0-.58.06-3.64,2.81-6.11,1.74-1.56,4.14-2.53,6.79-2.53h102.32c5.3,0,9.6,3.87,9.6,8.64v61.34c0,4.77-4.3,8.64-9.6,8.64Z"/>
      <text class="cls-33" transform="translate(91.26 112.22)"><tspan x="0" y="0">Controller model</tspan></text>
      <path class="cls-16" d="M95.92,79.25c2.11.19,9.23.44,13.04.67,10.36.61,15.54.85,19.29-.03,9.77-2.32,8.65-8.27,17.57-10.13,7.76-1.62,9.21,2.76,19.68,1.67,8.72-.91,9.25-4.11,14.91-3.1,5.85,1.04,7.15,4.78,15.51,8.23,4.23,1.74,7.98,2.47,10.5,2.81"/>
      <path class="cls-5" d="M95.99,79.25c11.61,10.6,20.8,13.32,27.25,13.72,16.31.99,19.32,1.94,25.35,3.84.95.3,2.07.67,2.07.67,5.72,1.88,9.84,3.54,11.62,4.25,4.81,1.92,13.99,5.48,26.2,10.22"/>
      <path class="cls-5" d="M95.94,79.33c17.57-2.28,37.16-8.99,43.51-15.45,5.71-5.81,11.55-12.41,19.12-9.2,3.67,1.55,8.42,3.71,14.6,4.85,3.55.65,5.48.33,12.23.3,4.88-.02,8.82.13,11.3.25"/>
      <path class="cls-2" d="M95.92,79.25c17.8-5.96,29.34-14.34,36.73-20.24,6-4.79,13.42-11.9,21.87-10.82,4.22.54,6,2.78,11.94,2.67,4.5-.09,6.4-1.43,12.49-2.53,4.99-.9,17.65-.83,20.25-.76"/>
      <path class="cls-2" d="M95.92,79.25c11.75,6.84,21.42,8.63,28.07,8.99,7.94.44,13.22-1.05,25.54.39,7.52.88,13.07,2.31,14.69,2.74,6.41,1.71,15.58,4.87,25.78,11.09"/>
      <path class="cls-20" d="M205.96,88.32c-.78-.16-1.96-.41-3.4-.71-2.97-.61-3.95-.81-4.58-.94-3.79-.81-6.76-2.16-7.95-2.7-5.15-2.34-4.83-3.64-7.67-4.03-2.85-.39-3.75.85-7.72,1.12-2.5.17-3.43-.23-9.36-1.35-9.01-1.7-13.57-2.52-16.04-1.48-1.14.48-2.23,1.18-5.26,2.55-.8.36-1.77.74-3.01,1.13-2.59.81-4.9,1.21-6.49,1.42-2.55-.07-5.16-.17-7.83-.31-8.11-.43-23.66-3.2-30.72-4.1"/>
      <g>
        <circle class="cls-12" cx="90.81" cy="78.87" r="4.78"/>
        <text class="cls-24" transform="translate(87.78 80.27)"><tspan x="0" y="0">x</tspan></text>
        <text class="cls-24" transform="translate(91.52 81.72) scale(.58)"><tspan x="0" y="0">0</tspan></text>
        <circle class="cls-1" cx="206.42" cy="88.05" r="1.12"/>
      </g>
      <circle class="cls-23" cx="199.21" cy="47.56" r="1.12"/>
      <circle class="cls-23" cx="190.01" cy="102.48" r="1.12"/>
      <text class="cls-26" transform="translate(171.11 78.36)"><tspan x="0" y="0">θ</tspan></text>
      <circle class="cls-10" cx="206.42" cy="88.05" r="14.64"/>
      <g>
        <circle class="cls-4" cx="210.09" cy="79.44" r="4.78"/>
        <text class="cls-24" transform="translate(206.84 81.09)"><tspan x="0" y="0">x</tspan></text>
        <text class="cls-24" transform="translate(210.58 82.55) scale(.58)"><tspan x="0" y="0">N</tspan></text>
      </g>
      <g>
        <rect class="cls-14" x="213.25" y="16.15" width="35.03" height="21.81" rx="2.83" ry="2.83"/>
        <text class="cls-28" transform="translate(221.36 28.8)"><tspan x="0" y="0">J</tspan></text>
        <text class="cls-28" transform="translate(225.1 29.08) scale(.58)"><tspan x="0" y="0">φ</tspan></text>
        <text class="cls-28" transform="translate(227.82 28.8)"><tspan x="0" y="0">(x</tspan></text>
        <text class="cls-28" transform="translate(234.37 30.26) scale(.58)"><tspan x="0" y="0">N</tspan></text>
        <text class="cls-28" transform="translate(237.65 28.8)"><tspan x="0" y="0">)</tspan></text>
      </g>
      <text class="cls-28" transform="translate(230.57 81.09)"><tspan x="0" y="0">u</tspan></text>
      <text class="cls-28" transform="translate(234.78 82.54) scale(.58)"><tspan x="0" y="0">t</tspan></text>
      <line class="cls-21" x1="215.36" y1="79.44" x2="229.27" y2="79.44"/>
      <g>
        <line class="cls-17" x1="178.26" y1="59.79" x2="178.26" y2="51.7"/>
        <path class="cls-27" d="M178.26,48.69c.53,1.42,1.43,3.18,2.38,4.27l-2.38-.86-2.38.86c.95-1.09,1.85-2.85,2.38-4.27Z"/>
      </g>
      <circle class="cls-1" cx="188.47" cy="111.94" r="1.12"/>
      <circle class="cls-1" cx="197.11" cy="60.08" r="1.12"/>
      <g>
        <line class="cls-17" x1="178.26" y1="79.85" x2="178.26" y2="71.76"/>
        <path class="cls-27" d="M178.26,68.74c.53,1.42,1.43,3.18,2.38,4.27l-2.38-.86-2.38.86c.95-1.09,1.85-2.85,2.38-4.27Z"/>
      </g>
      <text class="cls-28" transform="translate(56.83 79.72)"><tspan x="0" y="0">τ</tspan></text>
      <text class="cls-25" transform="translate(59.85 80.84) scale(.58)"><tspan x="0" y="0">RL</tspan></text>
      <circle class="cls-10" cx="197.11" cy="60.08" r="14.64"/>
      <path class="cls-10" d="M201.79,118.02c-3.36,7.36-12.04,10.6-19.4,7.24-7.36-3.36-10.6-12.04-7.24-19.4,3.36-7.36,12.04-10.6,19.4-7.24,7.36,3.36,10.6,12.04,7.24,19.4Z"/>
      <g>
        <line class="cls-17" x1="178.26" y1="107.89" x2="178.26" y2="99.81"/>
        <path class="cls-27" d="M178.26,96.79c.53,1.42,1.43,3.18,2.38,4.27l-2.38-.86-2.38.86c.95-1.09,1.85-2.85,2.38-4.27Z"/>
      </g>
    </g>
  </g>
  <g id="Layer_3" data-name="Layer 3">
    <g id="GH">
      <g id="Greenhouse">
        <polyline class="cls-8" points="13.6 71.49 10.71 73.49 1.77 79.69 1.46 79.69 1.46 103.45 37.85 103.45 37.85 79.69 37.54 79.69 28.6 73.49 19.66 67.29 13.6 71.49"/>
      </g>
      <g id="letucce3">
        <path class="cls-40" d="M8.63,92.05c-.88-.03-.66-.76-1.26-.76s-.38.73-1.26.76c-.73.03-1.01,1.26-1.01,1.26l2.27,5.81,2.27-5.81s-.28-1.24-1.01-1.26h0Z"/>
        <path class="cls-47" d="M6.36,101.64c-.1-.58.28-1.09-.23-1.39-.25-.15-.56-.2-.78-.38-.38-.25-.28-.93-.38-1.39-.03-.08-.05-.18-.1-.23-.1-.13-.56-.33-.71-.38-.3-.05-.51-.28-.58-.53-.08-.28.03-.58,0-.86,0-.35.1-.45-.15-.71-.18-.15-.38-.25-.51-.45-.23-.35-.08-1.01.3-1.21.2-.1.45-.13.61-.58.13-.4.13-.53.25-.93.1-.33.43-.56.76-.58s.66.18.76.51c.15.45.08.43.25.76.2.38.99.48,1.01,1.26,0,.28-.38.68-.28.91.05.1.15.18.25.28.25.25.38.63.33.99-.03.2-.13.4-.15.63-.03.45.33.81.61,1.19.66.88.25,1.57.25,3.08,0,.03-1.52.03-1.52.03h0Z"/>
        <path class="cls-47" d="M7.87,101.64c.1-.58.23-1.09.73-1.39.25-.15.56-.2.78-.38.38-.25.28-.93.38-1.39.03-.08.05-.18.1-.23.1-.13.56-.33.71-.38.25-.08.48-.28.56-.53.08-.28-.03-.58,0-.86,0-.35-.1-.45.15-.71.18-.15.38-.25.51-.45.23-.35.08-1.01-.3-1.21-.2-.1-.45-.25-.61-.58-.18-.38-.13-.53-.25-.93-.1-.33-.43-.56-.76-.58s-.66.18-.76.51c-.15.45-.08.43-.25.76-.2.38-.99.48-1.01,1.26,0,.28.38.68.28.91-.05.1-.15.18-.25.28-.25.25-.38.63-.33.99.03.2.13.4.15.63.03.45-.33.81-.61,1.19-.66.88-.76,1.57-.76,3.08.03.03,1.54.03,1.54.03h0Z"/>
        <path class="cls-38" d="M8.63,92.05c-.71-.03-.71-.51-.99-.68.23,1.16.96,1.06.91,1.44-.03.1-.03.15-.1.28-.03.03-.15.13-.23.18-.3.2-.81.56-.83,1.31h0c-.03-.76-.53-1.09-.83-1.31-.08-.05-.2-.13-.23-.18-.08-.13-.1-.15-.1-.28-.03-.4.63-.28.91-1.44-.33.18-.33.66-1.04.68-.25,0-.43.15-.58.33.03.05.05.13.08.18.15.45.08.43.25.76.2.38.99.48,1.01,1.26,0,.28-.38.68-.28.91.05.1.15.18.25.28.25.25.38.63.33.99-.03.2-.13.4-.15.63,0,.15.03.28.08.4-.86.88-.73,2.7-.71,2.83.05-.86.25-1.39.73-2.05.08-.1.18-.2.25-.33.2-.25.38-.53.35-.86,0-.23-.1-.43-.15-.63-.05-.35.05-.73.33-.99.08-.08.2-.15.25-.28.1-.25-.28-.66-.28-.91.03-.78.81-.88,1.01-1.26.18-.33.1-.33.25-.76.03-.05.05-.13.08-.18-.15-.18-.33-.33-.58-.33ZM7.54,95.4c-.08.08-.13.13-.18.2-.05-.08-.13-.15-.18-.2l-.08-.08c.03-.05.05-.08.05-.13.1-.18.2-.38.2-.61,0,.23.1.43.2.61.03.03.05.08.05.13l-.08.08h0Z"/>
        <path class="cls-42" d="M6.38,99.57c-.03-.05-.05-.08-.08-.13-.1-.2-.23-.4-.35-.61s-.25-.43-.38-.66-.25-.45-.35-.68c-.1-.23-.23-.45-.3-.68-.1-.23-.15-.45-.2-.66-.05-.2-.08-.43-.1-.61-.03-.2-.03-.38-.03-.53-.03-.15.03-.28.03-.4.03-.23.03-.35.03-.35,0,0,0,.13.03.35,0,.1,0,.25.03.38.03.15.05.33.1.51s.1.38.18.58c.08.2.15.4.28.61.1.2.23.4.35.61s.28.4.43.61c.15.2.3.4.45.58.05.05.08.1.13.15-.03.1-.08.23-.1.33v.1c-.03.05-.03.13-.03.18,0,.08-.03.15-.03.23-.05.03-.05.08-.08.1h0ZM7.62,101.64s0-.13-.03-.35c-.03-.13,0-.2.03-.33,0-.1.03-.25.08-.43.03-.08.05-.18.08-.25.03-.08.05-.18.1-.28.08-.18.18-.38.28-.58s.23-.4.35-.61c.13-.2.25-.43.38-.66s.25-.45.35-.68c.1-.23.23-.45.3-.68.1-.23.15-.45.2-.66.05-.2.08-.43.1-.61.03-.2.03-.35.03-.53.03-.15-.03-.28-.03-.4-.03-.23-.03-.35-.03-.35,0,0,0,.13-.03.35,0,.1,0,.25-.03.38-.03.15-.05.33-.1.51s-.1.38-.18.58c-.08.2-.15.4-.28.61-.1.2-.23.4-.35.61-.13.2-.28.4-.43.61s-.3.4-.45.58c-.15.2-.3.38-.45.58-.15.2-.28.4-.38.61l-.15.3c-.05.1-.1.2-.13.3-.08.2-.15.38-.18.56-.05.18-.08.35-.08.45v.38h1.01Z"/>
      </g>
      <g id="letucce2">
        <path class="cls-40" d="M21.14,92.05c-.88-.03-.66-.76-1.26-.76s-.38.73-1.26.76c-.73.03-1.01,1.26-1.01,1.26l2.27,5.81,2.27-5.81s-.28-1.24-1.01-1.26h0Z"/>
        <path class="cls-47" d="M18.87,101.64c-.1-.58.28-1.09-.23-1.39-.25-.15-.56-.2-.78-.38-.38-.25-.28-.93-.38-1.39-.03-.08-.05-.18-.1-.23-.1-.13-.56-.33-.71-.38-.3-.05-.51-.28-.58-.53-.08-.28.03-.58,0-.86,0-.35.1-.45-.15-.71-.18-.15-.38-.25-.51-.45-.23-.35-.08-1.01.3-1.21.2-.1.45-.13.61-.58.13-.4.13-.53.25-.93.1-.33.43-.56.76-.58s.66.18.76.51c.15.45.08.43.25.76.2.38.99.48,1.01,1.26,0,.28-.38.68-.28.91.05.1.15.18.25.28.25.25.38.63.33.99-.03.2-.13.4-.15.63-.03.45.33.81.61,1.19.66.88.25,1.57.25,3.08,0,.03-1.52.03-1.52.03h0Z"/>
        <path class="cls-47" d="M20.38,101.64c.1-.58.23-1.09.73-1.39.25-.15.56-.2.78-.38.38-.25.28-.93.38-1.39.03-.08.05-.18.1-.23.1-.13.56-.33.71-.38.25-.08.48-.28.56-.53.08-.28-.03-.58,0-.86,0-.35-.1-.45.15-.71.18-.15.38-.25.51-.45.23-.35.08-1.01-.3-1.21-.2-.1-.45-.25-.61-.58-.18-.38-.13-.53-.25-.93-.1-.33-.43-.56-.76-.58s-.66.18-.76.51c-.15.45-.08.43-.25.76-.2.38-.99.48-1.01,1.26,0,.28.38.68.28.91-.05.1-.15.18-.25.28-.25.25-.38.63-.33.99.03.2.13.4.15.63.03.45-.33.81-.61,1.19-.66.88-.76,1.57-.76,3.08.03.03,1.54.03,1.54.03h0Z"/>
        <path class="cls-38" d="M21.14,92.05c-.71-.03-.71-.51-.99-.68.23,1.16.96,1.06.91,1.44-.03.1-.03.15-.1.28-.03.03-.15.13-.23.18-.3.2-.81.56-.83,1.31h0c-.03-.76-.53-1.09-.83-1.31-.08-.05-.2-.13-.23-.18-.08-.13-.1-.15-.1-.28-.03-.4.63-.28.91-1.44-.33.18-.33.66-1.04.68-.25,0-.43.15-.58.33.03.05.05.13.08.18.15.45.08.43.25.76.2.38.99.48,1.01,1.26,0,.28-.38.68-.28.91.05.1.15.18.25.28.25.25.38.63.33.99-.03.2-.13.4-.15.63,0,.15.03.28.08.4-.86.88-.73,2.7-.71,2.83.05-.86.25-1.39.73-2.05.08-.1.18-.2.25-.33.2-.25.38-.53.35-.86,0-.23-.1-.43-.15-.63-.05-.35.05-.73.33-.99.08-.08.2-.15.25-.28.1-.25-.28-.66-.28-.91.03-.78.81-.88,1.01-1.26.18-.33.1-.33.25-.76.03-.05.05-.13.08-.18-.15-.18-.33-.33-.58-.33ZM20.06,95.4c-.08.08-.13.13-.18.2-.05-.08-.13-.15-.18-.2l-.08-.08c.03-.05.05-.08.05-.13.1-.18.2-.38.2-.61,0,.23.1.43.2.61.03.03.05.08.05.13l-.08.08h0Z"/>
        <path class="cls-42" d="M18.89,99.57c-.03-.05-.05-.08-.08-.13-.1-.2-.23-.4-.35-.61s-.25-.43-.38-.66-.25-.45-.35-.68c-.1-.23-.23-.45-.3-.68-.1-.23-.15-.45-.2-.66-.05-.2-.08-.43-.1-.61-.03-.2-.03-.38-.03-.53-.03-.15.03-.28.03-.4.03-.23.03-.35.03-.35,0,0,0,.13.03.35,0,.1,0,.25.03.38.03.15.05.33.1.51s.1.38.18.58c.08.2.15.4.28.61.1.2.23.4.35.61s.28.4.43.61c.15.2.3.4.45.58.05.05.08.1.13.15-.03.1-.08.23-.1.33v.1c-.03.05-.03.13-.03.18,0,.08-.03.15-.03.23-.05.03-.05.08-.08.1h0ZM20.13,101.64s0-.13-.03-.35c-.03-.13,0-.2.03-.33,0-.1.03-.25.08-.43.03-.08.05-.18.08-.25.03-.08.05-.18.1-.28.08-.18.18-.38.28-.58s.23-.4.35-.61c.13-.2.25-.43.38-.66s.25-.45.35-.68c.1-.23.23-.45.3-.68.1-.23.15-.45.2-.66.05-.2.08-.43.1-.61.03-.2.03-.35.03-.53.03-.15-.03-.28-.03-.4-.03-.23-.03-.35-.03-.35,0,0,0,.13-.03.35,0,.1,0,.25-.03.38-.03.15-.05.33-.1.51s-.1.38-.18.58c-.08.2-.15.4-.28.61-.1.2-.23.4-.35.61-.13.2-.28.4-.43.61s-.3.4-.45.58c-.15.2-.3.38-.45.58-.15.2-.28.4-.38.61l-.15.3c-.05.1-.1.2-.13.3-.08.2-.15.38-.18.56-.05.18-.08.35-.08.45v.38h1.01Z"/>
      </g>
      <g id="letucce1">
        <path class="cls-40" d="M32.63,92.05c-.88-.03-.66-.76-1.26-.76s-.38.73-1.26.76c-.73.03-1.01,1.26-1.01,1.26l2.27,5.81,2.27-5.81s-.28-1.24-1.01-1.26h0Z"/>
        <path class="cls-47" d="M30.36,101.64c-.1-.58.28-1.09-.23-1.39-.25-.15-.56-.2-.78-.38-.38-.25-.28-.93-.38-1.39-.03-.08-.05-.18-.1-.23-.1-.13-.56-.33-.71-.38-.3-.05-.51-.28-.58-.53-.08-.28.03-.58,0-.86,0-.35.1-.45-.15-.71-.18-.15-.38-.25-.51-.45-.23-.35-.08-1.01.3-1.21.2-.1.45-.13.61-.58.13-.4.13-.53.25-.93.1-.33.43-.56.76-.58s.66.18.76.51c.15.45.08.43.25.76.2.38.99.48,1.01,1.26,0,.28-.38.68-.28.91.05.1.15.18.25.28.25.25.38.63.33.99-.03.2-.13.4-.15.63-.03.45.33.81.61,1.19.66.88.25,1.57.25,3.08,0,.03-1.52.03-1.52.03h0Z"/>
        <path class="cls-47" d="M31.87,101.64c.1-.58.23-1.09.73-1.39.25-.15.56-.2.78-.38.38-.25.28-.93.38-1.39.03-.08.05-.18.1-.23.1-.13.56-.33.71-.38.25-.08.48-.28.56-.53.08-.28-.03-.58,0-.86,0-.35-.1-.45.15-.71.18-.15.38-.25.51-.45.23-.35.08-1.01-.3-1.21-.2-.1-.45-.25-.61-.58-.18-.38-.13-.53-.25-.93-.1-.33-.43-.56-.76-.58s-.66.18-.76.51c-.15.45-.08.43-.25.76-.2.38-.99.48-1.01,1.26,0,.28.38.68.28.91-.05.1-.15.18-.25.28-.25.25-.38.63-.33.99.03.2.13.4.15.63.03.45-.33.81-.61,1.19-.66.88-.76,1.57-.76,3.08.03.03,1.54.03,1.54.03h0Z"/>
        <path class="cls-38" d="M32.63,92.05c-.71-.03-.71-.51-.99-.68.23,1.16.96,1.06.91,1.44-.03.1-.03.15-.1.28-.03.03-.15.13-.23.18-.3.2-.81.56-.83,1.31h0c-.03-.76-.53-1.09-.83-1.31-.08-.05-.2-.13-.23-.18-.08-.13-.1-.15-.1-.28-.03-.4.63-.28.91-1.44-.33.18-.33.66-1.04.68-.25,0-.43.15-.58.33.03.05.05.13.08.18.15.45.08.43.25.76.2.38.99.48,1.01,1.26,0,.28-.38.68-.28.91.05.1.15.18.25.28.25.25.38.63.33.99-.03.2-.13.4-.15.63,0,.15.03.28.08.4-.86.88-.73,2.7-.71,2.83.05-.86.25-1.39.73-2.05.08-.1.18-.2.25-.33.2-.25.38-.53.35-.86,0-.23-.1-.43-.15-.63-.05-.35.05-.73.33-.99.08-.08.2-.15.25-.28.1-.25-.28-.66-.28-.91.03-.78.81-.88,1.01-1.26.18-.33.1-.33.25-.76.03-.05.05-.13.08-.18-.15-.18-.33-.33-.58-.33ZM31.54,95.4c-.08.08-.13.13-.18.2-.05-.08-.13-.15-.18-.2l-.08-.08c.03-.05.05-.08.05-.13.1-.18.2-.38.2-.61,0,.23.1.43.2.61.03.03.05.08.05.13l-.08.08h0Z"/>
        <path class="cls-42" d="M30.38,99.57c-.03-.05-.05-.08-.08-.13-.1-.2-.23-.4-.35-.61s-.25-.43-.38-.66-.25-.45-.35-.68c-.1-.23-.23-.45-.3-.68-.1-.23-.15-.45-.2-.66-.05-.2-.08-.43-.1-.61-.03-.2-.03-.38-.03-.53-.03-.15.03-.28.03-.4.03-.23.03-.35.03-.35,0,0,0,.13.03.35,0,.1,0,.25.03.38.03.15.05.33.1.51s.1.38.18.58c.08.2.15.4.28.61.1.2.23.4.35.61s.28.4.43.61c.15.2.3.4.45.58.05.05.08.1.13.15-.03.1-.08.23-.1.33v.1c-.03.05-.03.13-.03.18,0,.08-.03.15-.03.23-.05.03-.05.08-.08.1h0ZM31.62,101.64s0-.13-.03-.35c-.03-.13,0-.2.03-.33,0-.1.03-.25.08-.43.03-.08.05-.18.08-.25.03-.08.05-.18.1-.28.08-.18.18-.38.28-.58s.23-.4.35-.61c.13-.2.25-.43.38-.66s.25-.45.35-.68c.1-.23.23-.45.3-.68.1-.23.15-.45.2-.66.05-.2.08-.43.1-.61.03-.2.03-.35.03-.53.03-.15-.03-.28-.03-.4-.03-.23-.03-.35-.03-.35,0,0,0,.13-.03.35,0,.1,0,.25-.03.38-.03.15-.05.33-.1.51s-.1.38-.18.58c-.08.2-.15.4-.28.61-.1.2-.23.4-.35.61-.13.2-.28.4-.43.61s-.3.4-.45.58c-.15.2-.3.38-.45.58-.15.2-.28.4-.38.61l-.15.3c-.05.1-.1.2-.13.3-.08.2-.15.38-.18.56-.05.18-.08.35-.08.45v.38h1.01Z"/>
      </g>
    </g>
    <text class="cls-26" transform="translate(52.24 12.99)"><tspan x="0" y="0">d</tspan></text>
    <text class="cls-32" transform="translate(56.24 14.65) scale(.58)"><tspan x="0" y="0">N</tspan></text>
    <text class="cls-32" transform="translate(16.16 46.46)"><tspan x="0" y="0">d</tspan></text>
    <text class="cls-32" transform="translate(20.16 47.77) scale(.58)"><tspan x="0" y="0">t</tspan></text>
    <text class="cls-32" transform="translate(48.53 92.8)"><tspan x="0" y="0">x</tspan></text>
    <text class="cls-32" transform="translate(52.08 93.46) scale(.58)"><tspan x="0" y="0">t</tspan></text>
  </g>
  <g id="Layer_4" data-name="Layer 4">
    <g>
      <line class="cls-9" x1="114.49" y1="23.22" x2="128.53" y2="23.22"/>
      <line class="cls-18" x1="114.49" y1="33.01" x2="128.53" y2="33.01"/>
      <text class="cls-36" transform="translate(129.78 24.5)"><tspan x="0" y="0">Optimized trajectories</tspan></text>
      <text class="cls-35" transform="translate(130.06 34.7)"><tspan x="0" y="0">R</tspan><tspan class="cls-46" x="4" y="0">L</tspan><tspan x="7.44" y="0" xml:space="preserve"> rollout trajectories</tspan></text>
    </g>
  </g>
</svg>